<svg width="45" height="52" viewBox="0 0 45 52" fill="none" xmlns="http://www.w3.org/2000/svg">
<path d="M32.4431 24.1867C22.4324 19.243 13.5745 12.7578 3.68511 7.70785C2.6537 6.96364 0.044855 6.48522 0.590893 4.99681C1.13693 3.56156 2.53236 0.478418 4.23114 0C15.7586 5.47523 25.5873 13.2894 36.8114 19.1899C38.8135 20.1999 40.6943 21.3693 42.8785 22.1136C43.1818 22.273 42.8785 22.8046 42.8785 22.9109C42.3325 24.2399 41.119 26.9509 39.6023 27.4293C37.1148 26.4725 34.8699 25.2498 32.4431 24.1867Z" fill="#FEC301"/>
<path d="M5.56593 51.7216C4.1705 50.8179 1.37964 48.9042 1.2583 47.3627C3.1391 45.3958 5.26258 43.748 7.26472 41.8874C16.244 34.4454 26.6187 28.4386 35.6587 21.1028C36.8114 20.4118 38.2069 18.2323 39.7843 19.136C41.3011 20.0928 44.456 22.3255 44.5166 23.9733C34.5059 32.638 22.2504 39.0701 11.8757 47.3627C10.0556 48.8511 8.11411 50.18 6.53667 51.9342C6.29398 52.1468 5.74794 51.7747 5.56593 51.7216Z" fill="#FEC301"/>
</svg>
