<svg
  viewBox="0 0 570 497"
  fill="none"
  xmlns="http://www.w3.org/2000/svg"
>
  <g clip-path="url(#clip0_70_355)">
    <path
      d="M513.934 258.647C514.008 320.145 490.263 379.278 447.688 423.614C445.122 426.304 442.486 428.929 439.78 431.49C435.659 435.414 431.399 439.187 427 442.807C385.854 476.743 334.487 495.812 281.186 496.94C279.41 496.98 277.628 497 275.838 497C233.33 497 179.864 474.271 131.344 442.807C127.33 440.204 123.351 437.541 119.408 434.817C117.566 433.556 115.732 432.277 113.906 430.98C95.193 417.752 77.4302 403.225 60.749 387.507C49.8273 377.247 39.5856 366.284 30.089 354.688C-7.19219 308.653 -15.4151 267.174 37.7356 258.647C44.0284 257.64 50.1359 256.565 56.0579 255.42C64.636 253.77 72.8455 251.987 80.6864 250.073C91.2482 247.504 101.171 244.717 110.455 241.714C113.578 240.708 116.63 239.681 119.61 238.635C163.666 223.144 193.153 202.945 213.225 181.027C216.629 177.317 219.768 173.563 222.641 169.763C227.036 163.98 231.028 157.901 234.59 151.569C239.505 142.771 243.634 133.556 246.927 124.03L247.108 123.507C263.078 77.3912 258.22 34.6166 275.838 20.3002C351.151 -40.9032 444.914 46.2562 488.924 149.04C491.142 154.219 493.228 159.43 495.183 164.671C496.061 167.013 496.908 169.359 497.723 171.709C499.867 177.834 501.813 183.974 503.56 190.131C504.23 192.479 504.869 194.825 505.477 197.168C506.127 199.697 506.75 202.22 507.326 204.742C511.609 223.211 513.934 241.426 513.934 258.647Z"
      fill="#F2F2F2"
    />
    <path
      d="M281.186 496.94C279.41 496.98 277.627 497 275.838 497C233.33 497 179.864 474.271 131.344 442.807C127.33 440.204 123.351 437.541 119.408 434.817L122.866 413.752L227.553 399.838L280.094 440.057L281.186 496.94Z"
      fill="#3B3B3B"
    />
    <path
      d="M286.226 120.79H271.308C270.846 120.79 270.403 120.974 270.076 121.301C269.749 121.628 269.566 122.072 269.566 122.534V137.474C269.566 137.703 269.611 137.93 269.699 138.141C269.786 138.352 269.915 138.544 270.077 138.705C270.239 138.866 270.431 138.994 270.642 139.081C270.853 139.168 271.079 139.213 271.308 139.212H286.226C286.687 139.212 287.129 139.029 287.456 138.704C287.782 138.378 287.967 137.936 287.968 137.474V122.534C287.967 122.072 287.783 121.629 287.456 121.302C287.13 120.976 286.687 120.791 286.226 120.79Z"
      fill="white"
    />
    <path
      d="M286.226 146.249H271.308C270.846 146.249 270.403 146.433 270.076 146.76C269.749 147.087 269.566 147.531 269.566 147.993V162.934C269.566 163.162 269.611 163.389 269.699 163.6C269.786 163.811 269.915 164.003 270.077 164.164C270.239 164.325 270.431 164.453 270.642 164.54C270.853 164.627 271.079 164.672 271.308 164.671H286.226C286.687 164.671 287.129 164.489 287.456 164.163C287.782 163.837 287.967 163.395 287.968 162.934V147.993C287.967 147.531 287.783 147.088 287.456 146.761C287.13 146.435 286.687 146.25 286.226 146.249Z"
      fill="#E6E6E6"
    />
    <path
      d="M286.226 171.709H271.308C270.846 171.709 270.403 171.893 270.076 172.22C269.749 172.547 269.566 172.991 269.566 173.453V188.387C269.565 188.616 269.61 188.843 269.697 189.055C269.785 189.267 269.913 189.459 270.075 189.621C270.237 189.783 270.429 189.912 270.641 189.999C270.852 190.087 271.079 190.131 271.308 190.131H286.226C286.688 190.131 287.131 189.947 287.458 189.62C287.784 189.293 287.968 188.849 287.968 188.387V173.453C287.967 172.991 287.783 172.548 287.456 172.221C287.13 171.895 286.687 171.71 286.226 171.709Z"
      fill="#E6E6E6"
    />
    <path
      d="M287.941 198.604C287.867 198.202 287.655 197.839 287.342 197.577C287.029 197.315 286.634 197.17 286.226 197.168H271.308C270.846 197.168 270.403 197.352 270.076 197.679C269.749 198.006 269.566 198.45 269.566 198.912V213.846C269.565 214.075 269.61 214.302 269.697 214.514C269.785 214.726 269.913 214.918 270.075 215.08C270.237 215.242 270.429 215.371 270.641 215.458C270.852 215.546 271.079 215.591 271.308 215.59H286.226C286.688 215.59 287.131 215.406 287.458 215.079C287.784 214.752 287.968 214.308 287.968 213.846V198.912C287.97 198.809 287.961 198.705 287.941 198.604Z"
      fill="#E6E6E6"
    />
    <path
      d="M286.903 222.762C286.688 222.673 286.458 222.628 286.226 222.628H271.308C271.079 222.627 270.852 222.672 270.641 222.76C270.429 222.847 270.237 222.976 270.075 223.138C269.913 223.3 269.785 223.492 269.697 223.704C269.61 223.916 269.565 224.143 269.566 224.372V239.306C269.565 239.535 269.609 239.762 269.696 239.974C269.783 240.187 269.912 240.379 270.074 240.541C270.236 240.704 270.428 240.832 270.64 240.919C270.852 241.007 271.079 241.051 271.308 241.05H286.226C286.688 241.05 287.131 240.866 287.458 240.539C287.784 240.212 287.968 239.768 287.968 239.306V224.372C287.967 224.029 287.866 223.693 287.677 223.407C287.487 223.121 287.218 222.897 286.903 222.762Z"
      fill="#E6E6E6"
    />
    <path
      d="M317.563 120.79H302.645C302.183 120.79 301.74 120.974 301.413 121.301C301.086 121.628 300.903 122.072 300.902 122.534V137.474C300.903 137.703 300.948 137.93 301.036 138.141C301.123 138.352 301.252 138.544 301.414 138.705C301.575 138.866 301.767 138.994 301.979 139.081C302.19 139.168 302.416 139.213 302.645 139.212H317.563C318.024 139.212 318.466 139.029 318.792 138.704C319.119 138.378 319.303 137.936 319.305 137.474V122.534C319.304 122.072 319.12 121.629 318.793 121.302C318.467 120.976 318.024 120.791 317.563 120.79Z"
      fill="#E6E6E6"
    />
    <path
      d="M317.563 146.249H302.645C302.183 146.249 301.74 146.433 301.413 146.76C301.086 147.087 300.903 147.531 300.902 147.993V162.934C300.903 163.162 300.948 163.389 301.036 163.6C301.123 163.811 301.252 164.003 301.414 164.164C301.575 164.325 301.767 164.453 301.979 164.54C302.19 164.627 302.416 164.672 302.645 164.671H317.563C318.024 164.671 318.466 164.489 318.792 164.163C319.119 163.837 319.303 163.395 319.305 162.934V147.993C319.304 147.531 319.12 147.088 318.793 146.761C318.467 146.435 318.024 146.25 317.563 146.249Z"
      fill="var(--primary)"
    />
    <path
      d="M317.563 171.709H302.645C302.183 171.709 301.74 171.893 301.413 172.22C301.086 172.547 300.903 172.991 300.902 173.453V188.387C300.902 188.616 300.947 188.843 301.034 189.055C301.121 189.267 301.25 189.459 301.412 189.621C301.574 189.783 301.766 189.912 301.977 189.999C302.189 190.087 302.416 190.131 302.645 190.131H317.563C318.025 190.131 318.468 189.947 318.794 189.62C319.121 189.293 319.305 188.849 319.305 188.387V173.453C319.304 172.991 319.12 172.548 318.793 172.221C318.467 171.895 318.024 171.71 317.563 171.709Z"
      fill="var(--primary)"
    />
    <path
      d="M317.563 197.168H302.645C302.279 197.168 301.923 197.284 301.627 197.498C301.332 197.713 301.111 198.015 300.996 198.362C300.934 198.539 300.902 198.725 300.902 198.912V213.846C300.902 214.075 300.947 214.302 301.034 214.514C301.121 214.726 301.25 214.918 301.412 215.08C301.573 215.242 301.766 215.371 301.977 215.458C302.189 215.546 302.416 215.591 302.645 215.59H317.563C318.025 215.59 318.468 215.406 318.794 215.079C319.121 214.752 319.305 214.308 319.305 213.846V198.912C319.304 198.45 319.12 198.007 318.793 197.68C318.467 197.354 318.024 197.169 317.563 197.168Z"
      fill="var(--primary)"
    />
    <path
      d="M317.563 222.628H302.645C302.416 222.627 302.189 222.672 301.977 222.76C301.766 222.847 301.574 222.976 301.412 223.138C301.25 223.3 301.121 223.492 301.034 223.704C300.947 223.916 300.902 224.143 300.902 224.372V239.306C300.902 239.535 300.947 239.762 301.034 239.974C301.121 240.186 301.25 240.378 301.412 240.54C301.574 240.702 301.766 240.831 301.977 240.918C302.189 241.006 302.416 241.051 302.645 241.05H317.563C318.025 241.05 318.468 240.866 318.794 240.539C319.121 240.212 319.305 239.768 319.305 239.306V224.372C319.305 223.91 319.121 223.466 318.794 223.139C318.468 222.812 318.025 222.628 317.563 222.628Z"
      fill="#E6E6E6"
    />
    <path
      d="M348.899 120.79H333.982C333.52 120.79 333.077 120.974 332.75 121.301C332.423 121.628 332.239 122.072 332.239 122.534V137.474C332.239 137.703 332.285 137.93 332.372 138.141C332.46 138.352 332.589 138.544 332.75 138.705C332.912 138.866 333.104 138.994 333.316 139.081C333.527 139.168 333.753 139.213 333.982 139.212H348.899C349.36 139.212 349.803 139.029 350.129 138.704C350.456 138.378 350.64 137.936 350.642 137.474V122.534C350.641 122.072 350.457 121.629 350.13 121.302C349.804 120.976 349.361 120.791 348.899 120.79Z"
      fill="var(--primary)"
    />
    <path
      d="M348.899 146.249H333.982C333.52 146.249 333.076 146.433 332.75 146.76C332.423 147.087 332.239 147.531 332.239 147.993V162.934C332.239 163.162 332.285 163.389 332.372 163.6C332.46 163.811 332.589 164.003 332.75 164.164C332.912 164.325 333.104 164.453 333.316 164.54C333.527 164.627 333.753 164.672 333.982 164.671H348.899C349.36 164.671 349.803 164.489 350.129 164.163C350.456 163.837 350.64 163.395 350.642 162.934V147.993C350.641 147.531 350.457 147.088 350.13 146.761C349.804 146.435 349.361 146.25 348.899 146.249Z"
      fill="var(--primary)"
    />
    <path
      d="M348.899 171.709H333.982C333.52 171.709 333.076 171.893 332.75 172.22C332.423 172.547 332.239 172.991 332.239 173.453V188.387C332.239 188.616 332.284 188.843 332.371 189.055C332.458 189.267 332.587 189.459 332.749 189.621C332.91 189.783 333.103 189.912 333.314 189.999C333.526 190.087 333.753 190.131 333.982 190.131H348.899C349.361 190.131 349.805 189.947 350.131 189.62C350.458 189.293 350.642 188.849 350.642 188.387V173.453C350.641 172.991 350.457 172.548 350.13 172.221C349.804 171.895 349.361 171.71 348.899 171.709Z"
      fill="#E6E6E6"
    />
    <path
      d="M348.899 197.168H333.982C333.52 197.168 333.077 197.352 332.75 197.679C332.423 198.006 332.239 198.45 332.239 198.912V213.846C332.239 214.075 332.284 214.302 332.371 214.514C332.458 214.726 332.587 214.918 332.749 215.08C332.91 215.242 333.103 215.371 333.314 215.458C333.526 215.546 333.753 215.591 333.982 215.59H348.899C349.362 215.59 349.805 215.406 350.131 215.079C350.458 214.752 350.642 214.308 350.642 213.846V198.912C350.641 198.45 350.457 198.007 350.13 197.68C349.804 197.354 349.361 197.169 348.899 197.168Z"
      fill="var(--primary)"
    />
    <path
      d="M348.899 222.628H333.982C333.753 222.627 333.526 222.672 333.314 222.76C333.103 222.847 332.91 222.976 332.749 223.138C332.587 223.3 332.458 223.492 332.371 223.704C332.284 223.916 332.239 224.143 332.239 224.372V239.306C332.239 239.535 332.284 239.762 332.371 239.974C332.458 240.186 332.587 240.378 332.749 240.54C332.91 240.702 333.103 240.831 333.314 240.918C333.526 241.006 333.753 241.051 333.982 241.05H348.899C349.362 241.05 349.805 240.866 350.131 240.539C350.458 240.212 350.642 239.768 350.642 239.306V224.372C350.642 223.91 350.458 223.466 350.131 223.139C349.805 222.812 349.362 222.628 348.899 222.628Z"
      fill="var(--primary)"
    />
    <path
      d="M380.236 120.79H365.318C364.856 120.79 364.413 120.974 364.087 121.301C363.76 121.628 363.576 122.072 363.576 122.534V137.474C363.576 137.703 363.622 137.93 363.709 138.141C363.797 138.352 363.925 138.544 364.087 138.705C364.249 138.866 364.441 138.994 364.652 139.081C364.864 139.168 365.09 139.213 365.318 139.212H380.236C380.697 139.212 381.14 139.029 381.466 138.704C381.793 138.378 381.977 137.936 381.979 137.474V122.534C381.977 122.072 381.793 121.629 381.467 121.302C381.14 120.976 380.698 120.791 380.236 120.79Z"
      fill="var(--primary)"
    />
    <path
      d="M380.236 146.249H365.318C364.856 146.249 364.413 146.433 364.087 146.76C363.76 147.087 363.576 147.531 363.576 147.993V162.934C363.576 163.162 363.622 163.389 363.709 163.6C363.797 163.811 363.925 164.003 364.087 164.164C364.249 164.325 364.441 164.453 364.652 164.54C364.864 164.627 365.09 164.672 365.318 164.671H380.236C380.697 164.671 381.14 164.489 381.466 164.163C381.793 163.837 381.977 163.395 381.979 162.934V147.993C381.977 147.531 381.793 147.088 381.467 146.761C381.14 146.435 380.698 146.25 380.236 146.249Z"
      fill="white"
    />
    <path
      d="M380.236 171.709H365.318C364.856 171.709 364.413 171.893 364.087 172.22C363.76 172.547 363.576 172.991 363.576 173.453V188.387C363.576 188.616 363.62 188.843 363.708 189.055C363.795 189.267 363.923 189.459 364.085 189.621C364.247 189.783 364.44 189.912 364.651 189.999C364.863 190.087 365.09 190.132 365.318 190.131H380.236C380.698 190.131 381.141 189.947 381.468 189.62C381.795 189.293 381.979 188.849 381.979 188.387V173.453C381.977 172.991 381.793 172.548 381.467 172.221C381.14 171.895 380.698 171.71 380.236 171.709Z"
      fill="white"
    />
    <path
      d="M380.236 197.168H365.318C364.856 197.168 364.413 197.352 364.087 197.679C363.76 198.006 363.576 198.45 363.576 198.912V213.846C363.576 214.075 363.62 214.302 363.708 214.514C363.795 214.726 363.923 214.918 364.085 215.08C364.247 215.242 364.44 215.371 364.651 215.458C364.863 215.546 365.09 215.591 365.318 215.59H380.236C380.698 215.59 381.141 215.406 381.468 215.079C381.795 214.752 381.979 214.308 381.979 213.846V198.912C381.977 198.45 381.793 198.007 381.467 197.68C381.14 197.354 380.698 197.169 380.236 197.168Z"
      fill="#E6E6E6"
    />
    <path
      d="M380.236 222.628H365.318C365.09 222.627 364.863 222.672 364.651 222.76C364.44 222.847 364.247 222.976 364.085 223.138C363.923 223.3 363.795 223.492 363.708 223.704C363.62 223.916 363.576 224.143 363.576 224.372V239.306C363.576 239.535 363.62 239.762 363.708 239.974C363.795 240.186 363.923 240.378 364.085 240.54C364.247 240.702 364.44 240.831 364.651 240.918C364.863 241.006 365.09 241.051 365.318 241.05H380.236C380.698 241.05 381.141 240.866 381.468 240.539C381.795 240.212 381.979 239.768 381.979 239.306V224.372C381.979 223.91 381.795 223.466 381.468 223.139C381.141 222.812 380.698 222.628 380.236 222.628Z"
      fill="var(--primary)"
    />
    <path
      d="M411.573 120.79H396.649C396.188 120.792 395.746 120.976 395.421 121.303C395.095 121.63 394.913 122.073 394.913 122.534V137.474C394.913 137.935 395.096 138.377 395.421 138.703C395.747 139.029 396.188 139.212 396.649 139.212H411.573C412.034 139.212 412.476 139.029 412.803 138.704C413.13 138.378 413.314 137.936 413.316 137.474V122.534C413.314 122.072 413.13 121.629 412.804 121.302C412.477 120.976 412.035 120.791 411.573 120.79Z"
      fill="white"
    />
    <path
      d="M411.573 146.249H396.649C396.188 146.251 395.746 146.435 395.421 146.762C395.095 147.089 394.913 147.532 394.913 147.993V162.934C394.913 163.394 395.096 163.836 395.421 164.162C395.747 164.488 396.188 164.671 396.649 164.671H411.573C412.034 164.671 412.476 164.489 412.803 164.163C413.13 163.837 413.314 163.395 413.316 162.934V147.993C413.314 147.531 413.13 147.088 412.804 146.761C412.477 146.435 412.035 146.25 411.573 146.249Z"
      fill="white"
    />
    <path
      d="M411.573 171.709H396.649C396.188 171.711 395.746 171.895 395.421 172.222C395.095 172.549 394.913 172.992 394.913 173.453V188.387C394.912 188.616 394.957 188.842 395.044 189.054C395.13 189.265 395.258 189.457 395.419 189.619C395.581 189.781 395.772 189.91 395.983 189.998C396.194 190.085 396.42 190.131 396.649 190.131H411.573C412.035 190.131 412.478 189.947 412.805 189.62C413.132 189.293 413.315 188.849 413.316 188.387V173.453C413.314 172.991 413.13 172.548 412.804 172.221C412.477 171.895 412.035 171.71 411.573 171.709Z"
      fill="white"
    />
    <path
      d="M411.573 197.168H396.649C396.188 197.17 395.746 197.354 395.421 197.681C395.095 198.008 394.913 198.451 394.913 198.912V213.846C394.912 214.075 394.957 214.301 395.044 214.513C395.13 214.724 395.258 214.916 395.419 215.078C395.581 215.24 395.772 215.369 395.983 215.457C396.194 215.545 396.42 215.59 396.649 215.59H411.573C412.035 215.59 412.478 215.406 412.805 215.079C413.132 214.752 413.315 214.308 413.316 213.846V198.912C413.314 198.45 413.13 198.007 412.804 197.68C412.477 197.354 412.035 197.169 411.573 197.168Z"
      fill="var(--primary)"
    />
    <path
      d="M411.573 222.628H396.649C396.42 222.628 396.194 222.673 395.983 222.761C395.772 222.849 395.581 222.978 395.419 223.14C395.258 223.302 395.13 223.494 395.044 223.705C394.957 223.917 394.912 224.144 394.913 224.372V239.306C394.912 239.534 394.957 239.761 395.044 239.972C395.13 240.184 395.258 240.376 395.419 240.538C395.581 240.7 395.772 240.829 395.983 240.917C396.194 241.004 396.42 241.05 396.649 241.05H411.573C412.035 241.05 412.478 240.866 412.805 240.539C413.132 240.212 413.315 239.768 413.316 239.306V224.372C413.315 223.91 413.132 223.466 412.805 223.139C412.478 222.812 412.035 222.628 411.573 222.628Z"
      fill="#E6E6E6"
    />
    <path
      d="M442.91 120.79H427.985C427.525 120.792 427.083 120.976 426.758 121.303C426.432 121.63 426.25 122.073 426.25 122.534V137.474C426.25 137.935 426.433 138.377 426.758 138.703C427.084 139.029 427.525 139.212 427.985 139.212H442.91C443.371 139.212 443.813 139.029 444.14 138.704C444.467 138.378 444.651 137.936 444.653 137.474V122.534C444.651 122.072 444.467 121.629 444.141 121.302C443.814 120.976 443.372 120.791 442.91 120.79Z"
      fill="white"
    />
    <path
      d="M442.91 146.249H427.985C427.524 146.251 427.083 146.435 426.758 146.762C426.432 147.089 426.25 147.532 426.25 147.993V162.934C426.25 163.394 426.433 163.836 426.758 164.162C427.084 164.488 427.525 164.671 427.985 164.671H442.91C443.371 164.671 443.813 164.488 444.14 164.163C444.467 163.837 444.651 163.395 444.653 162.934V147.993C444.651 147.531 444.467 147.088 444.141 146.761C443.814 146.435 443.372 146.25 442.91 146.249Z"
      fill="white"
    />
    <path
      d="M442.91 171.709H427.986C427.524 171.711 427.083 171.895 426.758 172.222C426.432 172.549 426.25 172.992 426.25 173.453V188.387C426.249 188.616 426.294 188.842 426.38 189.054C426.467 189.265 426.595 189.457 426.756 189.619C426.918 189.781 427.109 189.91 427.32 189.998C427.531 190.085 427.757 190.131 427.986 190.131H442.91C443.372 190.131 443.815 189.947 444.142 189.62C444.469 189.293 444.652 188.849 444.653 188.387V173.453C444.651 172.991 444.467 172.548 444.141 172.221C443.814 171.895 443.372 171.71 442.91 171.709Z"
      fill="var(--primary)"
    />
    <path
      d="M442.91 197.168H427.986C427.524 197.17 427.083 197.354 426.758 197.681C426.432 198.008 426.25 198.451 426.25 198.912V213.846C426.249 214.075 426.294 214.301 426.38 214.513C426.467 214.724 426.595 214.916 426.756 215.078C426.918 215.24 427.109 215.369 427.32 215.457C427.531 215.545 427.757 215.59 427.986 215.59H442.91C443.372 215.59 443.815 215.406 444.142 215.079C444.469 214.752 444.652 214.308 444.653 213.846V198.912C444.651 198.45 444.467 198.007 444.141 197.68C443.814 197.354 443.372 197.169 442.91 197.168Z"
      fill="#E6E6E6"
    />
    <path
      d="M442.91 222.628H427.986C427.757 222.628 427.531 222.673 427.32 222.761C427.109 222.849 426.918 222.978 426.756 223.14C426.595 223.302 426.467 223.494 426.38 223.705C426.294 223.917 426.249 224.144 426.25 224.372V239.306C426.249 239.534 426.294 239.761 426.38 239.972C426.467 240.184 426.595 240.376 426.756 240.538C426.918 240.7 427.109 240.829 427.32 240.917C427.531 241.004 427.757 241.05 427.986 241.05H442.91C443.372 241.05 443.815 240.866 444.142 240.539C444.469 240.212 444.652 239.768 444.653 239.306V224.372C444.652 223.91 444.469 223.466 444.142 223.139C443.815 222.812 443.372 222.628 442.91 222.628Z"
      fill="white"
    />
    <path
      d="M474.247 120.79H459.322C458.861 120.792 458.42 120.976 458.094 121.303C457.769 121.63 457.587 122.073 457.587 122.534V137.474C457.587 137.935 457.77 138.377 458.095 138.703C458.421 139.029 458.862 139.212 459.322 139.212H474.247C474.708 139.212 475.15 139.029 475.477 138.704C475.803 138.378 475.988 137.936 475.989 137.474V122.534C475.988 122.072 475.804 121.629 475.478 121.302C475.151 120.976 474.709 120.791 474.247 120.79Z"
      fill="var(--primary)"
    />
    <path
      d="M474.247 146.249H459.322C458.861 146.251 458.42 146.435 458.094 146.762C457.769 147.089 457.586 147.532 457.587 147.993V162.934C457.587 163.394 457.77 163.836 458.095 164.162C458.421 164.488 458.862 164.671 459.322 164.671H474.247C474.708 164.671 475.15 164.488 475.477 164.163C475.803 163.837 475.988 163.395 475.989 162.934V147.993C475.988 147.531 475.804 147.088 475.478 146.761C475.151 146.435 474.709 146.25 474.247 146.249Z"
      fill="var(--primary)"
    />
    <path
      d="M474.247 171.709H459.322C458.861 171.711 458.42 171.895 458.094 172.222C457.769 172.549 457.587 172.992 457.587 173.453V188.387C457.586 188.616 457.63 188.842 457.717 189.054C457.804 189.265 457.932 189.457 458.093 189.619C458.254 189.781 458.446 189.91 458.657 189.998C458.868 190.085 459.094 190.131 459.322 190.131H474.247C474.709 190.131 475.152 189.947 475.479 189.62C475.806 189.293 475.989 188.849 475.989 188.387V173.453C475.988 172.991 475.804 172.548 475.478 172.221C475.151 171.895 474.709 171.71 474.247 171.709Z"
      fill="#E6E6E6"
    />
    <path
      d="M474.247 197.168H459.322C458.861 197.17 458.42 197.354 458.094 197.681C457.769 198.008 457.587 198.451 457.587 198.912V213.846C457.586 214.075 457.63 214.301 457.717 214.513C457.804 214.724 457.932 214.916 458.093 215.078C458.254 215.24 458.446 215.369 458.657 215.457C458.868 215.545 459.094 215.59 459.322 215.59H474.247C474.709 215.59 475.152 215.406 475.479 215.079C475.806 214.752 475.989 214.308 475.989 213.846V198.912C475.988 198.45 475.804 198.007 475.478 197.68C475.151 197.354 474.709 197.169 474.247 197.168Z"
      fill="white"
    />
    <path
      d="M474.247 222.628H459.322C459.094 222.628 458.868 222.673 458.657 222.761C458.446 222.849 458.254 222.978 458.093 223.14C457.932 223.302 457.804 223.494 457.717 223.705C457.63 223.917 457.586 224.144 457.587 224.372V239.306C457.586 239.534 457.63 239.761 457.717 239.972C457.804 240.184 457.932 240.376 458.093 240.538C458.254 240.7 458.446 240.829 458.657 240.917C458.868 241.004 459.094 241.05 459.322 241.05H474.247C474.709 241.05 475.152 240.866 475.479 240.539C475.806 240.212 475.989 239.768 475.989 239.306V224.372C475.989 223.91 475.806 223.466 475.479 223.139C475.152 222.812 474.709 222.628 474.247 222.628Z"
      fill="var(--primary)"
    />
    <path
      d="M505.584 120.79H490.659C490.198 120.792 489.757 120.976 489.431 121.303C489.106 121.63 488.923 122.073 488.924 122.534V137.474C488.924 137.935 489.107 138.377 489.432 138.703C489.758 139.029 490.199 139.212 490.659 139.212H505.584C506.045 139.212 506.487 139.029 506.814 138.704C507.14 138.378 507.325 137.936 507.326 137.474V122.534C507.325 122.072 507.141 121.629 506.814 121.302C506.488 120.976 506.046 120.791 505.584 120.79Z"
      fill="var(--primary)"
    />
    <path
      d="M505.584 146.249H490.659C490.198 146.251 489.757 146.435 489.431 146.762C489.106 147.089 488.923 147.532 488.924 147.993V162.934C488.924 163.394 489.107 163.836 489.432 164.162C489.758 164.488 490.199 164.671 490.659 164.671H505.584C506.045 164.671 506.487 164.488 506.814 164.163C507.14 163.837 507.325 163.395 507.326 162.934V147.993C507.325 147.531 507.141 147.088 506.814 146.761C506.488 146.435 506.046 146.25 505.584 146.249Z"
      fill="var(--primary)"
    />
    <path
      d="M505.584 171.709H490.659C490.198 171.711 489.757 171.895 489.431 172.222C489.106 172.549 488.923 172.992 488.924 173.453V188.387C488.923 188.616 488.967 188.842 489.054 189.054C489.141 189.265 489.269 189.457 489.43 189.619C489.591 189.781 489.783 189.91 489.994 189.998C490.205 190.085 490.431 190.131 490.659 190.131H505.584C506.046 190.131 506.489 189.947 506.816 189.62C507.142 189.293 507.326 188.849 507.326 188.387V173.453C507.325 172.991 507.141 172.548 506.814 172.221C506.488 171.895 506.046 171.71 505.584 171.709Z"
      fill="#E6E6E6"
    />
    <path
      d="M505.584 197.168H490.659C490.198 197.17 489.757 197.354 489.431 197.681C489.106 198.008 488.923 198.451 488.924 198.912V213.846C488.923 214.075 488.967 214.301 489.054 214.513C489.141 214.724 489.269 214.916 489.43 215.078C489.591 215.24 489.783 215.369 489.994 215.457C490.205 215.545 490.431 215.59 490.659 215.59H505.584C506.046 215.59 506.489 215.406 506.816 215.079C507.142 214.752 507.326 214.308 507.326 213.846V198.912C507.325 198.45 507.141 198.007 506.814 197.68C506.488 197.354 506.046 197.169 505.584 197.168Z"
      fill="var(--primary)"
    />
    <path
      d="M505.584 222.628H490.659C490.431 222.628 490.205 222.673 489.994 222.761C489.783 222.849 489.591 222.978 489.43 223.14C489.269 223.302 489.141 223.494 489.054 223.705C488.967 223.917 488.923 224.144 488.924 224.372V239.306C488.923 239.534 488.967 239.761 489.054 239.972C489.141 240.184 489.269 240.376 489.43 240.538C489.591 240.7 489.783 240.829 489.994 240.917C490.205 241.004 490.431 241.05 490.659 241.05H505.584C506.046 241.05 506.489 240.866 506.816 240.539C507.142 240.212 507.326 239.768 507.326 239.306V224.372C507.326 223.91 507.142 223.466 506.816 223.139C506.489 222.812 506.046 222.628 505.584 222.628Z"
      fill="var(--primary)"
    />
    <path
      d="M536.921 120.79H521.996C521.535 120.792 521.094 120.976 520.768 121.303C520.443 121.63 520.26 122.073 520.26 122.534V137.474C520.26 137.935 520.443 138.377 520.769 138.703C521.094 139.029 521.536 139.212 521.996 139.212H536.921C537.382 139.212 537.824 139.029 538.151 138.704C538.477 138.378 538.661 137.936 538.663 137.474V122.534C538.662 122.072 538.478 121.629 538.151 121.302C537.825 120.976 537.382 120.791 536.921 120.79Z"
      fill="#E6E6E6"
    />
    <path
      d="M536.921 146.249H521.996C521.535 146.251 521.094 146.435 520.768 146.762C520.443 147.089 520.26 147.532 520.26 147.993V162.934C520.26 163.394 520.443 163.836 520.769 164.162C521.094 164.488 521.536 164.671 521.996 164.671H536.921C537.382 164.671 537.824 164.488 538.151 164.163C538.477 163.837 538.661 163.395 538.663 162.934V147.993C538.662 147.531 538.478 147.088 538.151 146.761C537.825 146.435 537.382 146.25 536.921 146.249Z"
      fill="var(--primary)"
    />
    <path
      d="M536.921 171.709H521.996C521.535 171.711 521.094 171.895 520.768 172.222C520.443 172.549 520.26 172.992 520.26 173.453V188.387C520.26 188.616 520.304 188.842 520.391 189.054C520.478 189.265 520.606 189.457 520.767 189.619C520.928 189.781 521.12 189.91 521.331 189.998C521.542 190.085 521.768 190.131 521.996 190.131H536.921C537.383 190.131 537.826 189.947 538.152 189.62C538.479 189.293 538.663 188.849 538.663 188.387V173.453C538.662 172.991 538.478 172.548 538.151 172.221C537.825 171.895 537.382 171.71 536.921 171.709Z"
      fill="var(--primary)"
    />
    <path
      d="M536.921 197.168H521.996C521.535 197.17 521.094 197.354 520.768 197.681C520.443 198.008 520.26 198.451 520.26 198.912V213.846C520.26 214.075 520.304 214.301 520.391 214.513C520.478 214.724 520.606 214.916 520.767 215.078C520.928 215.24 521.12 215.369 521.331 215.457C521.542 215.545 521.768 215.59 521.996 215.59H536.921C537.383 215.59 537.826 215.406 538.153 215.079C538.479 214.752 538.663 214.308 538.663 213.846V198.912C538.662 198.45 538.478 198.007 538.151 197.68C537.825 197.354 537.382 197.169 536.921 197.168Z"
      fill="var(--primary)"
    />
    <path
      d="M536.921 222.628H521.996C521.768 222.628 521.542 222.673 521.331 222.761C521.12 222.849 520.928 222.978 520.767 223.14C520.606 223.302 520.478 223.494 520.391 223.705C520.304 223.917 520.26 224.144 520.26 224.372V239.306C520.26 239.534 520.304 239.761 520.391 239.972C520.478 240.184 520.606 240.376 520.767 240.538C520.928 240.7 521.12 240.829 521.331 240.917C521.542 241.004 521.768 241.05 521.996 241.05H536.921C537.383 241.05 537.826 240.866 538.153 240.539C538.479 240.212 538.663 239.768 538.663 239.306V224.372C538.663 223.91 538.479 223.466 538.153 223.139C537.826 222.812 537.383 222.628 536.921 222.628Z"
      fill="#E6E6E6"
    />
    <path
      d="M568.258 120.79H553.333C552.872 120.792 552.43 120.976 552.105 121.303C551.78 121.63 551.597 122.073 551.597 122.534V137.474C551.597 137.935 551.78 138.377 552.106 138.703C552.431 139.029 552.873 139.212 553.333 139.212H568.258C568.719 139.212 569.161 139.029 569.487 138.704C569.814 138.378 569.998 137.936 570 137.474V122.534C569.999 122.072 569.815 121.629 569.488 121.302C569.162 120.976 568.719 120.791 568.258 120.79Z"
      fill="#E6E6E6"
    />
    <path
      d="M568.258 146.249H553.333C552.872 146.251 552.43 146.435 552.105 146.762C551.78 147.089 551.597 147.532 551.597 147.993V162.934C551.597 163.394 551.78 163.836 552.106 164.162C552.431 164.488 552.873 164.671 553.333 164.671H568.258C568.719 164.671 569.161 164.488 569.487 164.163C569.814 163.837 569.998 163.395 570 162.934V147.993C569.999 147.531 569.815 147.088 569.488 146.761C569.162 146.435 568.719 146.25 568.258 146.249Z"
      fill="#E6E6E6"
    />
    <path
      d="M568.258 171.709H553.333C552.872 171.711 552.43 171.895 552.105 172.222C551.78 172.549 551.597 172.992 551.597 173.453V188.387C551.597 188.616 551.641 188.842 551.728 189.054C551.815 189.265 551.943 189.457 552.104 189.619C552.265 189.781 552.457 189.91 552.667 189.998C552.878 190.085 553.105 190.131 553.333 190.131H568.258C568.72 190.131 569.163 189.947 569.489 189.62C569.816 189.293 570 188.849 570 188.387V173.453C569.999 172.991 569.815 172.548 569.488 172.221C569.162 171.895 568.719 171.71 568.258 171.709Z"
      fill="var(--primary)"
    />
    <path
      d="M568.258 197.168H553.333C552.872 197.17 552.43 197.354 552.105 197.681C551.78 198.008 551.597 198.451 551.597 198.912V213.846C551.597 214.075 551.641 214.301 551.728 214.513C551.815 214.724 551.943 214.916 552.104 215.078C552.265 215.24 552.457 215.369 552.667 215.457C552.878 215.545 553.105 215.59 553.333 215.59H568.258C568.72 215.59 569.163 215.406 569.489 215.079C569.816 214.752 570 214.308 570 213.846V198.912C569.999 198.45 569.815 198.007 569.488 197.68C569.162 197.354 568.719 197.169 568.258 197.168Z"
      fill="#E6E6E6"
    />
    <path
      d="M568.258 222.628H553.333C553.105 222.628 552.878 222.673 552.667 222.761C552.457 222.849 552.265 222.978 552.104 223.14C551.943 223.302 551.815 223.494 551.728 223.705C551.641 223.917 551.597 224.144 551.597 224.372V239.306C551.597 239.534 551.641 239.761 551.728 239.972C551.815 240.184 551.943 240.376 552.104 240.538C552.265 240.7 552.457 240.829 552.667 240.917C552.878 241.004 553.105 241.05 553.333 241.05H568.258C568.72 241.05 569.163 240.866 569.489 240.539C569.816 240.212 570 239.768 570 239.306V224.372C570 223.91 569.816 223.466 569.489 223.139C569.163 222.812 568.72 222.628 568.258 222.628Z"
      fill="#E6E6E6"
    />
    <path
      d="M225.239 442.808H224.823L225.178 442.761L225.239 442.808Z"
      fill="#3B3B3B"
    />
    <path
      d="M189.532 164.4C214.819 164.4 235.319 143.879 235.319 118.565C235.319 93.2505 214.819 72.7295 189.532 72.7295C164.245 72.7295 143.745 93.2505 143.745 118.565C143.745 143.879 164.245 164.4 189.532 164.4Z"
      fill="#FFDDB6"
    />
    <path
      d="M229.629 84.9592C229.629 84.9592 241.604 62.0417 215.258 59.9582C215.258 59.9582 192.798 39.5623 169.904 56.2296C169.904 56.2296 157.417 56.2296 150.588 70.3753C150.588 70.3753 140.767 66.6466 138.609 76.6255C138.609 76.6255 131.422 97.4597 138.609 116.21C145.795 134.961 148.182 137.045 148.182 137.045C148.182 137.045 136.374 97.7326 165.117 95.6492C193.861 93.5657 226.026 75.5839 228.422 98.5013C230.817 121.419 234.422 127.066 234.422 127.066C234.422 127.066 257.174 94.3346 229.629 84.9592Z"
      fill="#3B3B3B"
    />
    <path
      d="M307.973 231.523L307.825 232.302L306.17 241.05L294.73 301.562L294.053 305.124L292.632 312.658L290.689 322.936L286.38 345.712L285.147 352.24L284.684 354.688L284.524 355.547L283.243 362.303L282.855 364.342L279.732 387.507L277.004 407.694L286.132 416.831L280.69 422.278L277.118 442.76L277.125 442.807H131.344C125.447 438.983 119.634 435.04 113.906 430.979L115.106 421.99C115.106 421.99 119.234 405.936 117.498 404.017C115.77 402.099 111.976 398.67 111.976 398.67L116.755 387.507L117.418 385.958L116.306 362.859L116.279 362.303L115.91 354.688L115.863 353.709L115.79 352.24L114.376 322.936L114.349 322.453L113.92 313.571L113.518 305.124L113.344 301.562L111.621 265.919L110.455 241.714L109.437 220.642L113.531 219.253L157.327 204.353L175.468 180.745L213.225 181.027L231.708 181.168L262.549 209.8L269.566 213.155L269.619 213.182L274.652 215.59L287.412 221.688L300.902 228.142L307.825 231.449L307.973 231.523Z"
      fill="#BCBCBC"
    />
    <path
      d="M180.347 374.044C177.58 375.117 174.612 375.569 171.652 375.37C168.691 375.17 165.81 374.323 163.212 372.889C160.614 371.454 158.362 369.467 156.614 367.066C154.866 364.666 153.665 361.911 153.096 358.996L81.6837 348.854L106.508 320.743L170.517 334.684C175.472 334.051 180.487 335.26 184.612 338.082C188.737 340.903 191.684 345.141 192.896 349.993C194.108 354.844 193.499 359.972 191.187 364.405C188.874 368.838 185.017 372.267 180.347 374.044Z"
      fill="#FFDDB6"
    />
    <path
      d="M148.507 322.936C147.184 321.257 145.311 320.1 143.219 319.669L113.92 313.571L110.911 312.947C109.162 312.582 107.51 311.851 106.063 310.802C104.616 309.754 103.407 308.411 102.514 306.862C101.587 305.236 101.027 303.427 100.872 301.562C100.732 299.866 100.935 298.16 101.468 296.544L111.621 265.919L118.209 246.048C119.007 243.651 119.478 241.158 119.61 238.635C119.977 231.653 117.819 224.772 113.531 219.253C109.762 214.402 104.533 210.894 98.6189 209.246C92.7044 207.598 86.4173 207.898 80.6864 210.103C80.5188 210.163 80.3446 210.23 80.177 210.297C76.0671 211.94 72.3951 214.517 69.4514 217.825C66.5076 221.133 64.3726 225.081 63.2152 229.357L56.0578 255.42L41.2941 309.15C39.8162 314.533 39.5176 320.172 40.4188 325.682C41.32 331.191 43.3997 336.441 46.5156 341.071C49.6314 345.702 53.7098 349.603 58.4717 352.509C63.2336 355.415 68.5665 357.257 74.1053 357.909L116.306 362.86L135.834 365.154C138.092 365.426 140.37 364.836 142.213 363.502C144.056 362.168 145.329 360.187 145.779 357.956C145.811 357.834 145.836 357.711 145.853 357.587L146.322 354.688L150.296 330.282L150.336 330.034C150.544 328.789 150.488 327.514 150.173 326.291C149.858 325.069 149.29 323.926 148.507 322.936Z"
      fill="#BCBCBC"
    />
    <path
      d="M225.834 374.826C228.724 375.498 231.726 375.527 234.629 374.912C237.532 374.296 240.265 373.051 242.635 371.264C245.005 369.477 246.955 367.191 248.347 364.568C249.739 361.945 250.54 359.048 250.693 356.082L319.963 335.96L291.426 311.635L230.021 334.472C225.026 334.545 220.231 336.45 216.545 339.825C212.859 343.201 210.538 347.813 210.022 352.787C209.506 357.761 210.83 362.752 213.744 366.814C216.659 370.876 220.96 373.727 225.834 374.826Z"
      fill="#FFDDB6"
    />
    <path
      d="M354.355 290.95L321.409 215.047C318.715 208.816 313.902 203.741 307.825 200.724C305.947 199.799 303.974 199.079 301.941 198.577C301.626 198.497 301.311 198.423 300.996 198.363C296.686 197.421 292.214 197.504 287.941 198.604C284.035 199.609 280.385 201.426 277.228 203.938C274.071 206.45 271.478 209.6 269.619 213.182C269.599 213.212 269.581 213.243 269.566 213.276C267.489 217.298 266.385 221.751 266.341 226.278C266.298 230.805 267.318 235.279 269.317 239.34L269.726 240.158L293.008 286.965C293.803 288.565 294.251 290.316 294.322 292.102C294.394 293.888 294.087 295.669 293.423 297.328C292.758 298.987 291.751 300.487 290.467 301.729C289.182 302.971 287.65 303.927 285.971 304.535L284.336 305.125L254.929 315.758C252.723 316.546 250.908 318.161 249.866 320.262C248.825 322.363 248.639 324.786 249.347 327.022L249.42 327.257L257.663 353.662C257.704 353.783 257.744 353.904 257.791 354.025C257.863 354.252 257.953 354.474 258.059 354.689C258.935 356.656 260.483 358.245 262.425 359.171C264.368 360.097 266.576 360.299 268.654 359.74L284.523 355.547L287.76 354.689L328.741 343.854C334.133 342.428 339.154 339.852 343.459 336.303C347.764 332.753 351.253 328.315 353.685 323.291C356.118 318.266 357.437 312.775 357.552 307.193C357.668 301.611 356.577 296.07 354.355 290.95Z"
      fill="#BCBCBC"
    />
    <path
      d="M30.089 354.688C39.5855 366.284 49.8272 377.247 60.749 387.507H363.643C366.561 387.512 369.359 388.675 371.421 390.741C373.484 392.808 374.644 395.609 374.647 398.53L375.083 475.365C393.716 466.794 411.167 455.852 427 442.807C431.397 439.191 435.657 435.419 439.78 431.49C442.481 428.927 445.117 426.302 447.688 423.614C466.965 403.511 482.574 380.183 493.809 354.688H30.089Z"
      fill="#3B3B3B"
    />
    <path
      d="M447.688 423.613C445.122 426.303 442.486 428.929 439.78 431.489H375.304V423.613H447.688Z"
      fill="white"
    />
    <path
      d="M307.369 171.709C307.051 171.121 306.58 170.629 306.005 170.287C305.431 169.944 304.774 169.764 304.106 169.764H84.3991C83.4141 169.766 82.4702 170.16 81.7743 170.857C81.0784 171.555 80.6872 172.501 80.6864 173.487V305.125H307.825V173.487C307.829 172.865 307.672 172.253 307.369 171.709Z"
      fill="#3B3B3B"
    />
    <path
      d="M80.4874 301.561V317.805C80.4874 318.478 80.6199 319.145 80.8774 319.767C81.1348 320.389 81.5121 320.955 81.9878 321.431C82.4635 321.907 83.0282 322.285 83.6497 322.543C84.2712 322.8 84.9373 322.933 85.61 322.933H169.445V354.991H168.332C168.244 354.991 168.158 355.009 168.077 355.042C167.996 355.076 167.923 355.125 167.861 355.187C167.799 355.248 167.75 355.322 167.717 355.403C167.683 355.483 167.666 355.57 167.666 355.658V357.887C167.666 357.975 167.683 358.062 167.717 358.142C167.75 358.223 167.799 358.297 167.861 358.358C167.923 358.42 167.996 358.469 168.077 358.503C168.158 358.536 168.244 358.554 168.332 358.554H220.376C220.463 358.554 220.549 358.536 220.63 358.503C220.711 358.469 220.784 358.42 220.846 358.358C220.908 358.297 220.957 358.223 220.99 358.142C221.024 358.062 221.041 357.975 221.041 357.887V355.658C221.041 355.57 221.024 355.483 220.99 355.403C220.957 355.322 220.908 355.248 220.846 355.187C220.784 355.125 220.711 355.076 220.63 355.042C220.549 355.009 220.463 354.991 220.376 354.991H219.262V322.933H303.097C303.77 322.933 304.436 322.8 305.057 322.543C305.679 322.285 306.244 321.907 306.719 321.431C307.195 320.955 307.572 320.389 307.83 319.767C308.087 319.145 308.22 318.478 308.22 317.805V301.561H80.4874Z"
      fill="#3B3B3B"
    />
    <path
      d="M191.602 254.938C203.189 254.938 212.582 245.535 212.582 233.935C212.582 222.336 203.189 212.933 191.602 212.933C180.015 212.933 170.621 222.336 170.621 233.935C170.621 245.535 180.015 254.938 191.602 254.938Z"
      fill="var(--primary)"
    />
    <path
      d="M245.058 116.06H241.707C241.707 90.7012 216.636 74.0838 191.344 74.0703C187.665 74.0596 183.994 74.4169 180.387 75.137C176.326 75.9488 172.11 76.9215 167.969 78.1895C151.637 83.2009 136.491 92.8882 136.491 116.06C136.487 120.56 137.06 125.042 138.193 129.397L134.95 130.242C133.747 125.611 133.138 120.845 133.14 116.06C133.14 95.8132 141.443 81.9061 155.785 73.6142C163.324 69.2535 172.526 66.4426 183.067 65.074C187.454 64.4898 191.889 64.3549 196.303 64.6715C225.388 66.7646 245.058 89.0911 245.058 116.06Z"
      fill="var(--primary)"
    />
    <path
      d="M250.64 117.919L249.32 108.151C248.994 105.684 247.807 103.412 245.969 101.737C244.789 100.646 243.376 99.8366 241.838 99.3717C240.3 98.9068 238.676 98.7982 237.089 99.054L234.992 99.3424C234.418 99.418 233.864 99.607 233.364 99.8984C232.864 100.19 232.426 100.578 232.076 101.04C231.724 101.5 231.466 102.026 231.318 102.587C231.169 103.147 231.133 103.732 231.212 104.307L234.261 126.808C234.387 127.725 234.797 128.579 235.435 129.25C236.072 129.92 236.904 130.373 237.813 130.545C238.082 130.599 238.356 130.626 238.631 130.625C238.828 130.625 239.025 130.612 239.22 130.585L241.566 130.27C242.996 130.08 244.372 129.599 245.61 128.857C246.848 128.115 247.921 127.128 248.764 125.956C248.945 125.701 249.119 125.439 249.28 125.171C250.536 122.976 251.015 120.421 250.64 117.919Z"
      fill="var(--primary)"
    />
    <path
      d="M233.638 99.751C233.023 100.05 232.488 100.492 232.076 101.039C231.724 101.5 231.466 102.025 231.318 102.586C231.169 103.147 231.133 103.731 231.212 104.306L234.261 126.807C234.387 127.724 234.797 128.579 235.435 129.249C236.072 129.92 236.904 130.373 237.813 130.544L233.638 99.751Z"
      fill="white"
    />
    <path
      d="M250.64 117.919L249.32 108.151C248.994 105.684 247.807 103.412 245.969 101.737L249.005 124.124C249.05 124.484 249.143 124.835 249.28 125.171C250.536 122.976 251.015 120.42 250.64 117.919Z"
      fill="#3B3B3B"
    />
    <path
      d="M240.206 124.956C241.123 124.832 241.584 122.648 241.235 120.078C240.887 117.508 239.861 115.525 238.945 115.65C238.028 115.774 237.567 117.958 237.915 120.528C238.263 123.098 239.289 125.081 240.206 124.956Z"
      fill="#3B3B3B"
    />
    <path
      d="M238.195 112.88C239.112 112.756 239.573 110.571 239.225 108.001C238.877 105.431 237.851 103.449 236.934 103.573C236.017 103.698 235.556 105.882 235.904 108.452C236.253 111.022 237.278 113.005 238.195 112.88Z"
      fill="#3B3B3B"
    />
    <path
      d="M250.928 117.577C251.845 117.452 252.306 115.268 251.958 112.698C251.61 110.128 250.584 108.145 249.667 108.27C248.75 108.394 248.289 110.579 248.638 113.149C248.986 115.719 250.011 117.701 250.928 117.577Z"
      fill="#3B3B3B"
    />
    <path
      d="M191.344 74.0703C187.665 74.0596 183.995 74.4169 180.387 75.137C176.326 75.9488 172.11 76.9215 167.969 78.1895C161.502 77.8742 156.743 76.197 155.785 73.6142C163.324 69.2535 172.526 66.4426 183.067 65.074C187.454 64.4898 191.889 64.3549 196.303 64.6715C196.77 64.9457 197.174 65.3158 197.489 65.7575C197.803 66.1992 198.02 66.7024 198.126 67.2342C198.441 69.5688 195.78 72.051 191.344 74.0703Z"
      fill="#3B3B3B"
    />
    <path
      d="M148.561 139.339L143.4 117.865C143.216 117.09 142.808 116.387 142.226 115.844C141.644 115.301 140.915 114.942 140.13 114.812C139.908 114.778 139.684 114.76 139.46 114.759C139.144 114.76 138.829 114.798 138.522 114.873L136.524 115.356C133.953 115.978 131.734 117.597 130.353 119.856C128.972 122.114 128.543 124.829 129.159 127.405L131.471 137.038C131.999 139.306 133.257 141.338 135.05 142.821C135.341 143.056 135.645 143.273 135.962 143.472C137.085 144.177 138.338 144.649 139.647 144.861C140.955 145.073 142.293 145.021 143.581 144.706L145.572 144.223C146.098 144.1 146.593 143.87 147.026 143.546C147.67 143.076 148.159 142.425 148.432 141.676C148.706 140.927 148.75 140.114 148.561 139.339Z"
      fill="var(--primary)"
    />
    <path
      d="M137.743 135.344C138.642 135.127 138.88 132.907 138.274 130.385C137.668 127.864 136.447 125.995 135.547 126.212C134.648 126.429 134.41 128.649 135.016 131.17C135.622 133.692 136.843 135.56 137.743 135.344Z"
      fill="#3B3B3B"
    />
    <path
      d="M131.041 137.356C131.941 137.14 132.178 134.92 131.572 132.398C130.966 129.877 129.745 128.008 128.846 128.225C127.946 128.442 127.708 130.661 128.314 133.183C128.921 135.705 130.141 137.573 131.041 137.356Z"
      fill="#3B3B3B"
    />
    <path
      d="M148.889 139.259L143.729 117.784C143.528 116.946 143.084 116.186 142.454 115.598C141.823 115.011 141.033 114.623 140.184 114.483L147.227 143.814C147.923 143.304 148.452 142.599 148.748 141.788C149.043 140.978 149.093 140.097 148.889 139.259Z"
      fill="white"
    />
    <path
      d="M130.325 123.151C130.183 122.554 129.916 121.994 129.541 121.508C128.816 123.388 128.683 125.446 129.159 127.405L131.471 137.038C131.999 139.306 133.257 141.338 135.05 142.821L130.325 123.151Z"
      fill="#3B3B3B"
    />
  </g>
  <defs>
    <clipPath id="clip0_70_355">
      <rect width="570" height="497" fill="white" />
    </clipPath>
  </defs>
</svg>
