<svg
  viewBox="0 0 673 490"
  fill="none"
  xmlns="http://www.w3.org/2000/svg"
>
  <g clip-path="url(#clip0_70_434)">
    <path
      d="M174.755 428.003L152.696 420.296C150.268 408.267 150.812 395.827 154.283 384.056C162.651 404.203 188.752 409.836 203.244 426.142C207.725 431.263 210.996 437.326 212.815 443.883C214.635 450.44 214.955 457.322 213.753 464.019L217.977 480.045C207.064 478.793 196.552 475.191 187.165 469.485C177.779 463.78 169.741 456.108 163.605 446.997C160.213 441.851 157.483 436.299 155.479 430.472C165.001 429.796 174.755 428.003 174.755 428.003Z"
      fill="#F2F2F2"
    />
    <path
      d="M430.896 284.768H315.386C313.752 284.77 312.186 285.421 311.032 286.578C309.878 287.735 309.23 289.303 309.232 290.937V473.409H437.066V290.937C437.066 290.127 436.907 289.324 436.597 288.576C436.287 287.827 435.833 287.147 435.26 286.574C434.687 286.001 434.006 285.546 433.257 285.236C432.509 284.926 431.706 284.767 430.896 284.768ZM373.53 388.446C369.917 388.429 366.458 386.987 363.903 384.432C361.349 381.878 359.907 378.418 359.89 374.806V353.76C359.89 350.142 361.327 346.673 363.885 344.115C366.443 341.557 369.912 340.12 373.53 340.12C377.147 340.12 380.616 341.557 383.174 344.115C385.732 346.673 387.169 350.142 387.169 353.76V374.806C387.153 378.418 385.71 381.878 383.156 384.432C380.602 386.987 377.142 388.429 373.53 388.446Z"
      fill="#E6E6E6"
    />
    <path
      d="M308.836 467.572V485.177C308.838 486.089 309.201 486.964 309.846 487.609C310.491 488.254 311.365 488.617 312.277 488.619H434.021C434.932 488.614 435.805 488.25 436.449 487.606C437.094 486.961 437.458 486.088 437.462 485.177V467.572H308.836Z"
      fill="#CCCCCC"
    />
    <path
      d="M622.17 0H128.41C124.168 0.00674882 120.101 1.69493 117.102 4.6946C114.102 7.69426 112.414 11.7607 112.407 16.0029V349.194C112.411 353.437 114.098 357.505 117.099 360.506C120.099 363.506 124.167 365.193 128.41 365.197H622.17C626.413 365.193 630.481 363.506 633.482 360.506C636.482 357.505 638.169 353.437 638.173 349.194V16.0029C638.166 11.7607 636.478 7.69426 633.479 4.6946C630.479 1.69493 626.412 0.00674882 622.17 0Z"
      fill="#E6E6E6"
    />
    <path
      d="M618.047 11.5537H132.537C130.265 11.5591 128.088 12.4654 126.483 14.0739C124.878 15.6824 123.977 17.8616 123.977 20.1337V345.064C123.98 347.333 124.882 349.509 126.487 351.114C128.092 352.718 130.267 353.621 132.537 353.624H618.047C620.316 353.621 622.492 352.718 624.097 351.114C625.702 349.509 626.604 347.333 626.607 345.064V20.1337C626.607 17.8616 625.706 15.6824 624.101 14.0739C622.496 12.4654 620.319 11.5591 618.047 11.5537Z"
      fill="white"
    />
    <path
      d="M629.526 18.9052V301.725C592.17 312.614 552.282 311.035 515.903 297.228C479.524 283.42 448.634 258.136 427.91 225.202C407.186 192.269 397.756 153.48 401.048 114.708C404.341 75.9361 420.176 39.2926 446.156 10.3252H620.966C623.238 10.3306 625.416 11.2369 627.02 12.8454C628.625 14.4539 629.526 16.6331 629.526 18.9052Z"
      fill="var(--primary)"
    />
    <path
      d="M593.643 56.327H139.35C138.877 56.317 138.428 56.1222 138.097 55.7845C137.766 55.4468 137.581 54.993 137.581 54.5204C137.581 54.0479 137.766 53.5941 138.097 53.2564C138.428 52.9187 138.877 52.7239 139.35 52.7139H593.643C594.115 52.7239 594.565 52.9187 594.896 53.2564C595.226 53.5941 595.411 54.0479 595.411 54.5204C595.411 54.993 595.226 55.4468 594.896 55.7845C594.565 56.1222 594.115 56.317 593.643 56.327Z"
      fill="#BCBCBC"
    />
    <path
      d="M170.274 43.4897C176.121 43.4897 180.862 38.6438 180.862 32.6662C180.862 26.6886 176.121 21.8428 170.274 21.8428C164.427 21.8428 159.687 26.6886 159.687 32.6662C159.687 38.6438 164.427 43.4897 170.274 43.4897Z"
      fill="#3B3B3B"
    />
    <path
      d="M206.849 43.4897C212.696 43.4897 217.437 38.6438 217.437 32.6662C217.437 26.6886 212.696 21.8428 206.849 21.8428C201.002 21.8428 196.262 26.6886 196.262 32.6662C196.262 38.6438 201.002 43.4897 206.849 43.4897Z"
      fill="#3B3B3B"
    />
    <path
      d="M243.424 43.4897C249.271 43.4897 254.012 38.6438 254.012 32.6662C254.012 26.6886 249.271 21.8428 243.424 21.8428C237.577 21.8428 232.837 26.6886 232.837 32.6662C232.837 38.6438 237.577 43.4897 243.424 43.4897Z"
      fill="#3B3B3B"
    />
    <path
      d="M571.622 24.5254H545.641C545.126 24.5356 544.635 24.7474 544.275 25.1152C543.914 25.483 543.712 25.9776 543.712 26.4926C543.712 27.0077 543.914 27.5022 544.275 27.87C544.635 28.2378 545.126 28.4496 545.641 28.4599H571.622C572.137 28.4496 572.627 28.2378 572.987 27.87C573.348 27.5022 573.55 27.0077 573.55 26.4926C573.55 25.9776 573.348 25.483 572.987 25.1152C572.627 24.7474 572.137 24.5356 571.622 24.5254Z"
      fill="#3B3B3B"
    />
    <path
      d="M571.622 31.9102H545.641C545.126 31.9204 544.635 32.1322 544.275 32.5C543.914 32.8678 543.712 33.3623 543.712 33.8774C543.712 34.3924 543.914 34.887 544.275 35.2548C544.635 35.6226 545.126 35.8344 545.641 35.8446H571.622C572.137 35.8344 572.627 35.6226 572.987 35.2548C573.348 34.887 573.55 34.3924 573.55 33.8774C573.55 33.3623 573.348 32.8678 572.987 32.5C572.627 32.1322 572.137 31.9204 571.622 31.9102Z"
      fill="#3B3B3B"
    />
    <path
      d="M571.622 39.2852H545.641C545.126 39.2954 544.635 39.5072 544.275 39.875C543.914 40.2428 543.712 40.7373 543.712 41.2524C543.712 41.7674 543.914 42.262 544.275 42.6298C544.635 42.9976 545.126 43.2094 545.641 43.2196H571.622C572.137 43.2094 572.627 42.9976 572.987 42.6298C573.348 42.262 573.55 41.7674 573.55 41.2524C573.55 40.7373 573.348 40.2428 572.987 39.875C572.627 39.5072 572.137 39.2954 571.622 39.2852Z"
      fill="#3B3B3B"
    />
    <path
      d="M253.959 254.283C254.628 253.556 255.129 252.69 255.427 251.748C255.725 250.806 255.813 249.81 255.685 248.83C255.556 247.85 255.214 246.91 254.683 246.077C254.152 245.243 253.445 244.536 252.611 244.006L258.151 220.631L246.426 224.915L242.963 246.455C242.164 247.915 241.929 249.617 242.302 251.238C242.674 252.86 243.629 254.289 244.984 255.254C246.34 256.218 248.002 256.653 249.656 256.474C251.31 256.295 252.841 255.516 253.959 254.283Z"
      fill="#FFDDB6"
    />
    <path
      d="M282.156 156.33L277.45 168.43C277.45 168.43 279.467 180.531 276.106 183.219C272.745 185.908 274.089 185.908 274.089 187.925C273.973 189.372 273.554 190.778 272.859 192.052C272.165 193.326 271.209 194.439 270.056 195.32C267.367 197.337 255.266 238.343 255.266 238.343H243.166C243.557 235.218 243.557 232.057 243.166 228.932C242.494 224.226 245.183 212.126 246.527 210.109C247.872 208.092 246.527 205.403 246.527 201.37C246.527 197.337 249.216 195.32 249.216 188.597C249.216 181.875 257.283 129.44 256.611 123.39C255.939 117.34 263.333 111.962 263.333 111.962H270.056L282.156 156.33Z"
      fill="#E6E6E6"
    />
    <path
      d="M325.812 471.541H335.127L339.56 435.611H325.812V471.541Z"
      fill="#FFDDB6"
    />
    <path
      d="M322.772 465.161L337.654 464.272V470.649L351.803 480.42C352.501 480.903 353.028 481.596 353.305 482.399C353.582 483.202 353.595 484.072 353.342 484.883C353.089 485.694 352.584 486.402 351.9 486.906C351.216 487.409 350.389 487.68 349.539 487.68H331.822L328.768 481.373L327.576 487.68H320.896L322.772 465.161Z"
      fill="#3B3B3B"
    />
    <path
      d="M209.063 463.627L217.718 467.072L235.125 435.33L222.352 430.245L209.063 463.627Z"
      fill="#FFDDB6"
    />
    <path
      d="M208.598 456.575L222.754 461.254L220.396 467.178L229.927 481.489C230.398 482.196 230.63 483.035 230.591 483.883C230.551 484.732 230.241 485.545 229.707 486.205C229.172 486.865 228.44 487.336 227.619 487.551C226.797 487.765 225.928 487.712 225.139 487.398L208.678 480.845L208.173 473.856L204.733 479.275L198.526 476.804L208.598 456.575Z"
      fill="#3B3B3B"
    />
    <path
      d="M307.036 364.628L291.503 292.14L267.247 372.68L228.84 449.053L228.636 449.459L216.47 442.908C214.753 411.898 218.831 382.838 233.746 357.428L240.809 287.682C241.025 285.298 246.293 229.35 262.975 219.428L267.86 208.289L316.45 196.288L316.627 196.487C321.299 201.739 324.386 208.208 325.528 215.144L340.047 303.101L340.055 303.15L336.162 364.51L341.487 455.036H322.219C310.299 432.607 305.238 402.471 307.036 364.628Z"
      fill="#3B3B3B"
    />
    <path
      d="M352.98 123.22L382.437 112.915C383.35 112.599 384.351 112.658 385.221 113.078C386.091 113.499 386.758 114.248 387.077 115.16C387.397 116.072 387.341 117.073 386.923 117.945C386.506 118.816 385.759 119.486 384.848 119.809L355.392 130.114C354.479 130.43 353.478 130.371 352.608 129.95C351.738 129.529 351.07 128.781 350.751 127.868C350.432 126.956 350.488 125.955 350.905 125.084C351.323 124.212 352.069 123.542 352.98 123.22Z"
      fill="#3B3B3B"
    />
    <path
      d="M384.63 118.87C385.207 120.865 387.693 121.834 389.7 121.302C391.686 120.622 393.337 119.209 394.317 117.353C395.396 115.578 396.136 113.613 397.246 111.858C399.375 108.523 402.706 106.135 406.548 105.188C403.125 104.737 399.647 105.396 396.625 107.068C395.562 107.797 394.388 108.351 393.149 108.706C391.826 108.776 390.501 108.759 389.181 108.654C388.015 108.714 386.891 109.105 385.94 109.783C384.989 110.46 384.252 111.395 383.815 112.477C383.378 113.56 383.259 114.745 383.473 115.892C383.688 117.04 384.225 118.102 385.023 118.954"
      fill="var(--primary)"
    />
    <path
      d="M380.778 122.043C380.654 123.023 380.317 123.965 379.79 124.801C379.263 125.637 378.559 126.347 377.728 126.881C376.897 127.416 375.958 127.762 374.979 127.894C374 128.027 373.003 127.943 372.06 127.649L357.786 146.971L353.487 135.251L367.701 118.699C368.3 117.147 369.448 115.869 370.927 115.106C372.405 114.344 374.113 114.15 375.725 114.562C377.337 114.975 378.741 115.964 379.673 117.342C380.604 118.721 380.998 120.394 380.778 122.043Z"
      fill="#FFDDB6"
    />
    <path
      d="M253.538 231.888C252.23 231.888 251.486 231.631 251.199 231.081C250.776 230.274 251.509 229.219 252.358 227.996C252.949 227.145 254.678 225.451 253.828 225.348C240.938 223.774 247.126 144.304 252.712 133.799C253.847 131.665 252.646 128.39 253.924 124.768C257.415 114.876 262.181 111.836 271.675 105.781C272.446 105.289 273.248 104.775 274.082 104.24C275.162 103.546 275.102 101.247 275.038 98.8117C274.967 96.1052 274.894 93.3062 276.22 91.5569L276.306 91.4428L276.446 91.4105C279.653 90.6691 290.439 89.2927 296.827 91.4205L296.915 91.4505L296.981 91.516C298.498 93.0334 298.636 95.9726 298.77 98.8147C298.88 101.148 298.983 103.351 299.842 104.309C306.405 111.624 313.848 111.482 313.924 111.48L314.293 111.469L314.329 111.836C318.931 120.594 315.328 153.121 318.526 173.325C321.776 193.852 349.526 211.325 325.764 214.428C325.815 214.507 325.844 214.598 325.847 214.692C325.85 214.786 325.827 214.879 325.78 214.961C324.345 217.644 258.47 231.888 253.538 231.888Z"
      fill="#E6E6E6"
    />
    <path
      d="M328.758 172.108L315.926 164.89C293.551 149.381 288.039 137.064 287.35 129.46C286.615 121.346 290.938 116.908 291.123 116.724L291.222 116.65L302.789 110.74C304.259 109.99 305.871 109.56 307.519 109.48C309.167 109.399 310.813 109.67 312.348 110.274C313.883 110.878 315.273 111.802 316.424 112.984C317.575 114.165 318.462 115.578 319.026 117.129L329.725 146.554L341.587 137.805L346.646 135.811L350.728 130.353L361.94 123.814L370.268 131.31L359.794 152.258L353.975 153.74L352.741 156.918L352.631 156.989L328.758 172.108Z"
      fill="#E6E6E6"
    />
    <path
      d="M305.791 77.9645C303.41 82.3194 299.616 85.7334 295.035 87.6443C290.454 89.5551 285.359 89.8488 280.589 88.4771C275.818 87.1053 271.658 84.1499 268.791 80.0975C265.925 76.0451 264.524 71.1374 264.82 66.1826C265.115 61.2279 267.09 56.5215 270.417 52.8385C273.745 49.1556 278.227 46.7157 283.127 45.9207C288.026 45.1257 293.051 46.023 297.372 48.4648C301.693 50.9067 305.054 54.7474 306.902 59.3545C307.002 59.6045 307.092 59.8545 307.182 60.1145C308.226 63.0189 308.642 66.1117 308.402 69.1887C308.163 72.2657 307.273 75.2569 305.791 77.9645Z"
      fill="#FFDDB6"
    />
    <path
      d="M308.931 60.114C307.991 57.484 308.402 58.854 307.452 56.234C307.757 57.5248 307.663 58.878 307.181 60.114H281.172V44.994C288.792 41.974 296.241 39.404 300.741 44.994C304.752 44.9942 308.597 46.5873 311.433 49.4228C314.268 52.2583 315.861 56.104 315.862 60.114H308.931Z"
      fill="#3B3B3B"
    />
    <path
      d="M299.712 102.144C299.692 101.864 299.662 101.574 299.622 101.294C299.272 99.2401 298.706 97.2288 297.932 95.2943C297.182 93.1843 296.422 91.0643 295.662 88.9543C296.64 92.7844 296.342 96.8293 294.812 100.474C290.422 97.0543 293.192 89.2343 287.452 89.2343C273.652 89.2343 259.452 78.0443 259.452 64.2343C259.452 50.4342 265.372 40.1143 279.172 40.1143C292.982 40.1143 304.182 46.4342 304.452 60.2343C287.452 64.2343 302.921 100.744 299.712 102.144Z"
      fill="#3B3B3B"
    />
    <path
      d="M261.176 62.1191C270.012 62.1191 277.176 54.9557 277.176 46.1191C277.176 37.2826 270.012 30.1191 261.176 30.1191C252.339 30.1191 245.176 37.2826 245.176 46.1191C245.176 54.9557 252.339 62.1191 261.176 62.1191Z"
      fill="#3B3B3B"
    />
    <path
      d="M266.541 46.7407C263.801 49.9307 259.511 51.1707 255.641 52.8307C248.811 55.8271 242.815 60.4442 238.173 66.2819C233.531 72.1195 230.382 79.0013 229.001 86.3307C227.931 92.3007 228.071 98.4807 226.381 104.301C224.701 110.121 220.541 115.831 214.571 116.841C210.531 117.531 206.481 115.971 202.681 114.431C200.591 113.591 198.501 112.747 196.411 111.901C198.591 106.431 200.768 100.961 202.941 95.4907C199.448 100.653 195.386 105.406 190.831 109.661C183.341 106.641 175.845 103.621 168.341 100.601C186.801 100.671 183.651 82.7507 187.781 64.7707C190.051 54.8907 209.381 48.2007 213.171 38.8007C215.219 33.7022 218.685 29.2971 223.158 26.1068C227.632 22.9165 232.925 21.0746 238.413 20.7989C243.9 20.5233 249.352 21.8255 254.122 24.5515C258.893 27.2775 262.783 31.3131 265.331 36.1807C269.121 37.6908 269.231 43.5908 266.541 46.7407Z"
      fill="#3B3B3B"
    />
    <path
      d="M749.941 489.213L1.19067 489.521C0.874886 489.521 0.572035 489.395 0.34874 489.172C0.125444 488.949 0 488.646 0 488.33C0 488.014 0.125444 487.711 0.34874 487.488C0.572035 487.265 0.874886 487.139 1.19067 487.139L749.941 486.832C750.256 486.832 750.559 486.957 750.783 487.181C751.006 487.404 751.131 487.707 751.131 488.023C751.131 488.339 751.006 488.641 750.783 488.865C750.559 489.088 750.256 489.213 749.941 489.213Z"
      fill="#BCBCBC"
    />
  </g>
  <defs>
    <clipPath id="clip0_70_434">
      <rect width="751.131" height="489.52" fill="white" />
    </clipPath>
  </defs>
</svg>
