<svg viewBox="0 0 57 3" height="3" preserveAspectRatio="none" xmlns="http://www.w3.org/2000/svg">
<path d="M10.8266 3C10.2051 3 9.44846 3 8.50267 2.975C7.58389 2.95 6.55703 2.875 5.42208 2.75C3.88178 2.75 2.85492 2.7 2.34149 2.575C1.80103 2.5 1.34165 2.325 0.936305 2.1C-0.198649 1.625 -0.306739 1.3 0.639056 1.125C1.55783 0.95 3.93583 0.8 7.74603 0.675C9.50251 0.55 12.0967 0.45 15.5556 0.375C18.9875 0.275 22.7166 0.225 26.743 0.175C30.7694 0.125 34.5796 0.1 38.1736 0.05C41.7947 0.025 44.632 0 46.6858 0C49.361 0 51.1715 0.025 52.0903 0.1C53.0091 0.175 54.0359 0.375 55.1709 0.725C56.7112 1.2 57.2787 1.65 56.8733 2.075C56.468 2.5 55.0628 2.65 52.7118 2.525C52.1984 2.525 51.3877 2.55 50.3068 2.575C49.2259 2.6 48.0369 2.65 46.7398 2.675C45.4427 2.7 44.1997 2.75 42.9566 2.775C42.3351 2.775 40.6327 2.8 37.8493 2.825C35.066 2.85 31.8503 2.9 28.1752 2.925C24.5271 2.95 21.0682 2.975 17.8255 3C14.6098 3 12.2588 3 10.8266 3Z"/>
</svg>
