<svg viewBox="0 0 639 460" fill="none" xmlns="http://www.w3.org/2000/svg">
<g clip-path="url(#clip0_86_2746)">
<path d="M278.182 347.551C275.92 345.641 273.456 342.273 270.34 342.273C265.464 344.284 260.538 346.194 255.611 348.154C253.601 348.808 251.54 349.411 249.479 350.014C251.59 326.992 252.897 303.818 256.969 281.097C259.381 272.602 260.99 263.855 263.152 255.31C265.414 249.479 267.525 243.597 269.385 237.666C268.43 233.695 259.13 220.876 255.008 221.128C229.724 266.972 211.124 318.748 188.504 365.899C183.729 367.206 178.953 368.513 174.228 369.97C170.709 371.227 166.034 372.735 162.717 374.444C162.566 377.963 171.212 384.498 174.127 386.509C174.731 386.911 175.284 387.061 175.887 387.061C176.591 387.061 177.294 386.86 177.998 386.559C168.397 402.896 160.706 428.482 147.435 440.848C144.62 443.462 140.549 444.316 137.03 442.758C136.728 442.607 136.427 442.457 136.125 442.306C136.125 442.306 145.827 455.074 152.613 458.944C154.071 459.648 155.528 459.95 156.936 459.95C170.709 459.95 180.712 428.834 187.096 419.233C194.838 405.459 202.026 391.384 208.812 377.159C217.006 375.399 225.25 373.64 233.343 371.277C232.086 383.844 231.181 396.411 230.478 409.079C230.377 423.204 223.943 434.162 237.565 443.965C240.229 446.076 241.838 447.332 242.793 447.332C244 447.332 244.1 445.322 244 440.647C244.754 417.222 244.754 393.697 247.317 370.373C247.418 369.669 247.468 368.915 247.569 368.211C259.985 365.396 272.149 361.928 283.359 355.443C284.867 354.689 278.634 348.003 278.182 347.551ZM217.508 358.61C221.932 348.808 226.155 338.905 230.226 328.952C233.996 320.457 237.917 312.012 241.888 303.567C240.028 317.541 238.671 331.666 236.56 345.591C236.158 348.406 235.756 351.221 235.404 354.036C229.472 355.594 223.49 357.102 217.508 358.61Z" fill="#FEC301"/>
<path d="M387.564 284.013V296.58V306.633C390.631 300.45 396.964 296.58 403.851 296.58H412.698V397.568C412.698 402.142 410.888 406.465 407.671 409.682H412.698H425.265H430.292C427.075 406.465 425.265 402.092 425.265 397.568V296.58H450.399V305.427C450.399 312.313 446.528 318.597 440.345 321.713H450.399H462.966V296.58V284.013H387.564Z" fill="#0F0F0F"/>
<path d="M481.816 296.58C477.845 301.858 475.533 308.342 475.533 315.43C475.533 322.518 477.845 329.002 481.816 334.28C484.128 337.347 486.994 340.011 490.311 342.072C495.137 345.088 500.868 346.847 506.95 346.847H512.831C526.605 346.847 538.166 357.755 538.367 371.529C538.619 385.604 527.258 397.115 513.234 397.115H488.1V388.268C488.1 381.381 491.97 375.098 498.153 371.981H488.1H475.533V409.682H513.234C524.393 409.682 534.447 404.806 541.333 397.115C547.315 390.429 550.934 381.633 550.934 371.981C550.934 362.33 547.315 353.533 541.333 346.847C537.915 343.027 533.743 339.91 529.068 337.749C524.242 335.537 518.914 334.28 513.234 334.28H507.302C496.746 334.28 487.899 325.634 488.1 315.078C488.301 304.824 496.645 296.58 506.95 296.58H534.648C541.534 296.58 547.818 300.45 550.934 306.633V296.58V284.013H506.95C496.645 284.013 487.547 288.939 481.816 296.58Z" fill="#0F0F0F"/>
<path d="M365.396 346.847C371.378 340.162 374.997 331.365 374.997 321.713C374.997 312.062 371.378 303.265 365.396 296.58C358.51 288.889 348.456 284.013 337.297 284.013H299.596V409.682H312.163H322.216C316.033 406.616 312.163 400.282 312.163 393.395V359.414L362.43 409.682H374.997V371.981H362.43H352.377C358.56 375.048 362.43 381.381 362.43 388.268V392.088L329.756 359.414H337.297C348.456 359.414 358.459 354.538 365.396 346.847ZM312.163 346.847V331.767C314.324 327.394 317.843 323.875 322.216 321.713C317.843 319.552 314.324 316.033 312.163 311.66V296.58H336.894C350.668 296.58 362.229 307.488 362.43 321.261C362.682 335.336 351.321 346.847 337.297 346.847H312.163Z" fill="#0F0F0F"/>
<path d="M90.1301 237.766C83.9974 233.192 71.9834 223.641 71.531 215.85C75.1 211.879 79.8252 208.913 84.0477 205.746C115.917 179.657 161.611 144.57 169.352 101.792C143.313 104.004 120.844 123.106 94.6039 122.603C85.3044 120.844 77.7642 113.153 72.5866 105.16C71.2797 103.099 70.6262 100.686 70.8775 98.2735C73.1898 75.1001 153.116 -16.5882 173.122 2.66431C173.826 3.31779 178.099 9.55099 171.865 11.612C140.75 25.4356 111.142 75.3514 91.1354 103.954C115.515 98.3238 138.789 80.2274 164.577 84.2488C180.612 92.6938 191.068 110.69 186.141 129.842C175.133 172.469 98.6756 238.772 92.3418 238.772C91.4873 238.772 90.7333 238.47 90.1301 237.766Z" fill="#FEC301"/>
<path d="M299.596 62.8347V75.4016V85.4552C302.662 79.2723 308.996 75.4016 315.882 75.4016H324.73V176.39C324.73 180.964 322.92 185.287 319.703 188.504H324.73H337.297H342.323C339.106 185.287 337.297 180.914 337.297 176.39V75.4016H362.43V84.2488C362.43 91.1355 358.56 97.4189 352.377 100.536H362.43H374.997V75.4016V62.8347H299.596Z" fill="#0F0F0F"/>
<path d="M450.399 72.4359C443.713 66.454 434.916 62.8347 425.265 62.8347C415.614 62.8347 406.817 66.454 400.131 72.4359C392.44 79.3225 387.564 89.3761 387.564 100.536V150.803C387.564 161.963 392.44 172.016 400.131 178.903C406.817 184.885 415.614 188.504 425.265 188.504C434.916 188.504 443.713 184.885 450.399 178.903C458.09 172.016 462.966 161.963 462.966 150.803V100.536C462.966 89.3761 458.09 79.3225 450.399 72.4359ZM450.399 150.803C450.399 164.677 439.139 175.937 425.265 175.937C411.391 175.937 400.131 164.677 400.131 150.803V100.536C400.131 86.6616 411.391 75.4016 425.265 75.4016C439.139 75.4016 450.399 86.6616 450.399 100.536V150.803ZM425.265 115.616C427.427 119.989 430.945 123.508 435.319 125.669C430.945 127.831 427.427 131.35 425.265 135.723C423.104 131.35 419.585 127.831 415.211 125.669C419.534 123.508 423.104 119.989 425.265 115.616Z" fill="#0F0F0F"/>
<path d="M211.627 188.504H287.029V175.937V165.884C283.962 172.066 277.629 175.937 270.742 175.937H224.194V150.803H262.347C266.922 150.803 271.245 152.613 274.462 155.83V150.803V138.236V133.21C271.245 136.427 266.871 138.236 262.347 138.236H224.194V75.4016H270.742C277.629 75.4016 283.912 79.2723 287.029 85.4552V75.4016V62.8347H211.627V188.504Z" fill="#0F0F0F"/>
<path d="M215.9 267.726C216.905 265.514 218.112 263.554 218.815 261.694C185.639 268.329 150.401 276.221 117.425 283.761C77.5631 292.809 36.243 301.305 0 320.859C31.7692 307.789 67.0069 303.315 100.686 296.077C138.588 288.084 175.384 280.745 213.437 273.406C213.588 272.3 215.096 269.485 215.9 267.726Z" fill="#FEC301"/>
<path d="M516.802 199.613C440.194 213.487 364.24 232.739 288.034 248.524C287.23 251.339 286.777 253.5 286.627 256.215C286.576 257.119 286.375 259.13 286.275 260.035C286.978 259.884 289.492 259.231 290.196 259.08C351.874 247.166 412.597 232.036 474.226 219.77C515.697 211.728 557.369 204.69 598.89 196.899C612.16 194.435 625.783 192.123 638.903 189.861C597.985 189.208 556.966 191.47 516.802 199.613Z" fill="#FEC301"/>
</g>
<defs>
<clipPath id="clip0_86_2746">
<rect width="638.903" height="460" fill="white"/>
</clipPath>
</defs>
</svg>
