<svg viewBox="0 0 46 52" xmlns="http://www.w3.org/2000/svg">
<path d="M27.1912 27.0978C33.1735 20.0895 39.1558 13.0812 45.3889 6.36185C44.959 3.79695 42.1648 1.84618 40.3021 0.220533C38.9767 -0.971606 36.3975 3.00219 35.2153 4.19433C30.6301 8.92676 26.5464 14.0927 22.5343 19.2948C18.9879 13.4063 15.9072 8.31263 13.5071 3.5802C12.0025 4.23045 10.2831 6.65086 8.99347 8.2765C7.95463 9.54089 9.17258 10.9137 9.60245 11.9252C11.716 16.5131 14.2952 20.9926 17.1968 26.1586C14.6892 29.3376 12.11 32.4444 9.38753 35.4428C6.12771 38.8025 3.22611 42.4873 0.611084 46.4249C0.969306 48.6647 3.47686 50.3987 5.08886 51.8438C6.23517 52.8914 8.95764 48.3757 9.99649 47.0752C13.722 42.5956 17.4833 38.4051 21.3163 33.9617C21.7462 34.8648 22.176 35.7679 22.6059 36.7072C24.3254 40.9339 26.6538 45.1244 29.5196 49.4233C32.0271 49.7846 35.0362 47.5087 37.2572 45.7747C38.5826 44.727 35.0004 40.3197 33.7466 38.4773C31.2749 34.4313 29.2688 30.6743 27.1912 27.0978Z" />
</svg>
