<svg
  viewBox="0 0 715 458"
  fill="none"
  xmlns="http://www.w3.org/2000/svg"
>
  <g clip-path="url(#clip0_70_328)">
    <path d="M754 35.6475H1.96228V37.6067H754V35.6475Z" fill="#BCBCBC" />
    <path
      d="M55.0928 20.2482H11.6171C6.02443 20.2482 1.4718 15.7029 1.4718 10.1192C1.4718 4.53553 6.02443 0 11.6171 0H55.1026C60.6952 0 65.2479 4.54532 65.2479 10.129C65.2479 15.7127 60.6952 20.258 55.1026 20.258L55.0928 20.2482Z"
      fill="#BCBCBC"
    />
    <path d="M754 116.631H1.96228V118.59H754V116.631Z" fill="#BCBCBC" />
    <path
      d="M55.0928 101.232H11.6171C6.02443 101.232 1.4718 96.6863 1.4718 91.1026C1.4718 85.519 6.02443 80.9736 11.6171 80.9736H55.1026C60.6952 80.9736 65.2479 85.519 65.2479 91.1026C65.2479 96.6863 60.6952 101.232 55.1026 101.232H55.0928Z"
      fill="#BCBCBC"
    />
    <path d="M754 197.604H1.96228V199.563H754V197.604Z" fill="#BCBCBC" />
    <path
      d="M55.0928 182.214H11.6171C6.02443 182.214 1.4718 177.669 1.4718 172.085C1.4718 166.501 6.02443 161.956 11.6171 161.956H55.1026C60.6952 161.956 65.2479 166.501 65.2479 172.085C65.2479 177.669 60.6952 182.214 55.1026 182.214H55.0928Z"
      fill="#BCBCBC"
    />
    <path
      d="M270.803 38.5863H1.96234C0.883053 38.5863 0 37.7047 0 36.6272C0 35.5496 0.883053 34.668 1.96234 34.668H270.803C271.882 34.668 272.765 35.5496 272.765 36.6272C272.765 37.7047 271.882 38.5863 270.803 38.5863Z"
      fill="var(--primary)"
    />
    <path
      d="M411.159 119.57H1.96234C0.883053 119.57 0 118.688 0 117.611C0 116.533 0.883053 115.651 1.96234 115.651H411.159C412.239 115.651 413.122 116.533 413.122 117.611C413.122 118.688 412.239 119.57 411.159 119.57Z"
      fill="var(--primary)"
    />
    <path
      d="M136.383 200.542H1.96234C0.883053 200.542 0 199.661 0 198.583C0 197.506 0.883053 196.624 1.96234 196.624H136.383C137.462 196.624 138.345 197.506 138.345 198.583C138.345 199.661 137.462 200.542 136.383 200.542Z"
      fill="var(--primary)"
    />
    <path
      d="M566.194 161.3L549.956 166.825L549.691 143.403L564.477 143.236L566.194 161.3Z"
      fill="#FFDDB6"
    />
    <path
      d="M551.604 149.868C560.578 149.868 567.852 142.605 567.852 133.646C567.852 124.687 560.578 117.424 551.604 117.424C542.631 117.424 535.356 124.687 535.356 133.646C535.356 142.605 542.631 149.868 551.604 149.868Z"
      fill="#FFDDB6"
    />
    <path
      d="M556.039 131.99C553.321 131.941 551.506 129.218 550.417 126.72C549.328 124.222 548.209 121.362 545.688 120.353C543.617 119.53 540.046 125.28 538.398 123.781C536.68 122.214 538.25 114.044 540.036 112.565C541.822 111.086 544.285 110.772 546.6 110.635C552.262 110.312 557.952 110.704 563.516 111.801C566.95 112.477 570.501 113.515 573.003 115.964C576.173 119.069 577.026 123.801 577.301 128.229C577.586 132.754 577.37 137.505 575.211 141.502C573.043 145.489 568.461 148.467 564.016 147.507C563.545 145.107 563.967 142.638 564.114 140.189C564.261 137.75 564.045 135.115 562.534 133.185C561.023 131.256 557.825 130.521 556.108 132.265"
      fill="#3B3B3B"
    />
    <path
      d="M576.084 137.388C577.693 136.183 579.626 135.165 581.628 135.39C583.796 135.625 585.641 137.388 586.22 139.485C586.799 141.581 586.2 143.903 584.885 145.636C583.571 147.37 581.599 148.526 579.499 149.114C578.282 149.457 576.958 149.604 575.79 149.114C574.073 148.399 573.131 146.234 573.779 144.49"
      fill="#3B3B3B"
    />
    <path
      d="M515.634 290.645C514.614 295.984 516.645 300.833 520.187 301.47C523.719 302.106 527.418 298.286 528.439 292.947C528.88 290.822 528.782 288.617 528.154 286.531L540.654 202.864L523.817 199.896L518.274 284.758C516.92 286.492 516.007 288.51 515.634 290.655V290.645Z"
      fill="#FFDDB6"
    />
    <path
      d="M549.661 156.078L538.192 156.205C530.097 157.518 527.938 161.868 526.192 169.861C523.513 182.057 520.099 198.308 520.815 198.534C521.963 198.906 541.586 207.86 551.516 205.646L549.661 156.078Z"
      fill="var(--primary)"
    />
    <path
      d="M563.738 421.955L548.472 422.125L548.714 443.743L563.98 443.573L563.738 421.955Z"
      fill="#FFDDB6"
    />
    <path
      d="M533.953 457.04C532.344 457.059 530.921 457.04 529.842 456.952C525.78 456.628 521.885 453.68 519.912 451.956C519.029 451.182 518.735 449.928 519.176 448.85C519.49 448.077 520.138 447.489 520.943 447.244L531.628 444.07L548.847 432.188L549.043 432.53C549.122 432.658 550.858 435.704 551.447 437.771C551.673 438.555 551.624 439.211 551.3 439.721C551.074 440.073 550.76 440.279 550.505 440.406C550.819 440.73 551.81 441.386 554.852 441.837C559.277 442.493 560.17 437.899 560.199 437.703L560.229 437.546L560.356 437.458C562.446 436.076 563.731 435.45 564.183 435.577C564.467 435.655 564.928 435.792 566.322 448.253C566.449 448.645 567.362 451.505 566.793 454.258C566.175 457.255 553.096 456.364 550.486 456.158C550.407 456.168 540.635 456.971 533.933 457.04H533.953Z"
      fill="#3B3B3B"
    />
    <path
      d="M606.984 404.466L594.121 412.676L605.785 430.891L618.648 422.681L606.984 404.466Z"
      fill="#FFDDB6"
    />
    <path
      d="M590.321 453.444C588.526 453.464 586.877 453.268 585.7 453.072C584.542 452.876 583.63 451.975 583.433 450.819C583.286 449.986 583.531 449.154 584.081 448.527L591.459 440.19L599.77 421.01L600.123 421.196C600.251 421.265 603.341 422.93 604.941 424.37C605.549 424.919 605.853 425.497 605.853 426.104C605.853 426.525 605.696 426.868 605.539 427.103C605.981 427.211 607.168 427.24 609.984 426.016C614.085 424.233 612.407 419.864 612.329 419.688L612.27 419.541L612.339 419.404C613.379 417.131 614.144 415.916 614.586 415.779C614.87 415.701 615.331 415.563 623.122 425.399C623.436 425.663 625.732 427.603 626.703 430.238C627.763 433.108 616.204 439.26 613.869 440.465C613.801 440.524 601.722 449.487 596.758 452.053C594.786 453.072 592.44 453.405 590.302 453.425L590.321 453.444Z"
      fill="#3B3B3B"
    />
    <path
      d="M572.935 241.029L530.195 241.5L526.761 281.232L545.364 427.721L567.185 427.476L557.521 342.858L593.765 418.953L613.006 405.18L584.571 334.081C584.571 334.081 593.755 271.769 585.827 256.36C577.899 240.951 572.945 241.01 572.945 241.01V241.029H572.935Z"
      fill="#3B3B3B"
    />
    <path
      d="M594.226 243.214L526.339 243.968L545.737 156.128L575.309 155.795L594.226 243.214Z"
      fill="var(--primary)"
    />
    <path
      d="M600.849 289.705C601.987 295.024 600.064 299.913 596.542 300.628C593.019 301.343 589.242 297.61 588.104 292.291C587.613 290.175 587.662 287.971 588.241 285.865L573.877 202.492L590.645 199.151L598.072 283.877C599.466 285.581 600.417 287.579 600.849 289.715V289.705Z"
      fill="#FFDDB6"
    />
    <path
      d="M563.839 155.922L575.309 155.795C583.433 156.931 585.68 161.232 587.613 169.186C590.557 181.323 594.334 197.487 593.628 197.731C592.48 198.123 573.072 207.508 563.094 205.519L563.849 155.922H563.839Z"
      fill="var(--primary)"
    />
    <path
      d="M667.412 457.04C667.412 457.569 666.98 458 666.45 458H457.343C456.813 458 456.382 457.569 456.382 457.04C456.382 456.511 456.813 456.08 457.343 456.08H666.45C666.98 456.08 667.412 456.511 667.412 457.04Z"
      fill="#0F0F0F"
    />
  </g>
  <defs>
    <clipPath id="clip0_70_328">
      <rect width="754" height="458" fill="white" />
    </clipPath>
  </defs>
</svg>
