<svg width="52" height="52" viewBox="0 0 52 52" fill="none" xmlns="http://www.w3.org/2000/svg">
<path d="M1.91528 8.19913C1.50747 7.91367 1.14044 7.58742 0.814195 7.22039C0.569509 6.9757 0.324824 6.69024 0.1617 6.40477C0.12092 6.36399 -0.123768 5.9154 0.0801367 5.9154C7.99164 5.58915 15.9031 4.97744 23.8146 4.44729C27.8519 4.16182 31.8893 3.95792 35.9674 3.71323C39.3114 3.50933 42.6554 3.38698 45.9587 3.01995C46.1218 3.01995 46.3257 3.01995 46.4888 2.93839C46.652 2.77527 47.0598 2.77527 47.3452 2.77527C47.4268 2.77527 47.4676 2.77527 47.5491 2.77527C47.9162 2.77527 48.324 3.10152 48.5687 3.26464C49.3027 3.75401 49.9552 4.36572 50.5261 5.01822C50.934 5.46681 51.3825 5.95618 51.7088 6.48633C51.7904 6.60868 52.239 7.34273 51.8311 7.34273C51.3826 7.34273 50.9747 7.38351 50.5669 7.30195H50.5261C50.2407 7.26117 49.9552 7.26117 49.7105 7.26117C49.5882 7.26117 49.4658 7.26117 49.3027 7.26117C48.6502 7.26117 47.957 7.26117 47.3045 7.26117C45.3062 7.26117 43.2671 7.34273 41.2689 7.42429C37.0684 7.54664 32.868 7.70976 28.6676 7.79132C24.5487 7.87289 20.4298 7.95445 16.3109 8.03601C14.1903 8.07679 12.1105 8.15835 9.9899 8.19913C8.03242 8.23991 6.03415 8.28069 4.07667 8.36226C3.54652 8.40304 3.01637 8.40304 2.48622 8.44382C2.28231 8.44382 2.03762 8.28069 1.91528 8.19913Z" fill="#FEC301"/>
<path d="M1.91528 28.5896C1.50747 28.3041 1.14044 27.9779 0.814195 27.6108C0.569509 27.3661 0.324824 27.0807 0.1617 26.7952C0.12092 26.7544 -0.123768 26.3058 0.0801367 26.3058C7.99164 25.9796 15.9031 25.3679 23.8146 24.8377C27.8519 24.5523 31.8893 24.3484 35.9674 24.1037C39.3114 23.8998 42.6554 23.7774 45.9587 23.4104C46.1218 23.4104 46.3257 23.4104 46.4888 23.3288C46.652 23.1657 47.0598 23.1657 47.3452 23.1657C47.4268 23.1657 47.4676 23.1657 47.5491 23.1657C47.9162 23.1657 48.324 23.492 48.5687 23.6551C49.3027 24.1445 49.9552 24.7562 50.5261 25.4087C50.934 25.8573 51.3825 26.3466 51.7088 26.8768C51.7904 26.9991 52.239 27.7332 51.8311 27.7332C51.3826 27.7332 50.9747 27.774 50.5669 27.6924H50.5261C50.2407 27.6516 49.9552 27.6516 49.7105 27.6516C49.5882 27.6516 49.4658 27.6516 49.3027 27.6516C48.6502 27.6516 47.957 27.6516 47.3045 27.6516C45.3062 27.6516 43.2671 27.7332 41.2689 27.8147C37.0684 27.9371 32.868 28.1002 28.6676 28.1818C24.5487 28.2633 20.4298 28.3449 16.3109 28.4265C14.1903 28.4672 12.1105 28.5488 9.9899 28.5896C8.03242 28.6304 6.03415 28.6711 4.07667 28.7527C3.54652 28.7935 3.01637 28.7935 2.48622 28.8343C2.28231 28.8343 2.03762 28.6711 1.91528 28.5896Z" fill="#FEC301"/>
<path d="M1.91528 48.98C1.50747 48.6946 1.14044 48.3683 0.814195 48.0013C0.569509 47.7566 0.324824 47.4711 0.1617 47.1857C0.12092 47.1449 -0.123768 46.6963 0.0801367 46.6963C7.99164 46.37 15.9031 45.7583 23.8146 45.2282C27.8519 44.9427 31.8893 44.7388 35.9674 44.4941C39.3114 44.2902 42.6554 44.1679 45.9587 43.8008C46.1218 43.8008 46.3257 43.8008 46.4888 43.7193C46.652 43.5562 47.0598 43.5562 47.3452 43.5562C47.4268 43.5562 47.4676 43.5562 47.5491 43.5562C47.9162 43.5562 48.324 43.8824 48.5687 44.0455C49.3027 44.5349 49.9552 45.1466 50.5261 45.7991C50.934 46.2477 51.3825 46.7371 51.7088 47.2672C51.7904 47.3896 52.239 48.1236 51.8311 48.1236C51.3826 48.1236 50.9747 48.1644 50.5669 48.0828H50.5261C50.2407 48.0421 49.9552 48.0421 49.7105 48.0421C49.5882 48.0421 49.4658 48.0421 49.3027 48.0421C48.6502 48.0421 47.957 48.0421 47.3045 48.0421C45.3062 48.0421 43.2671 48.1236 41.2689 48.2052C37.0684 48.3275 32.868 48.4906 28.6676 48.5722C24.5487 48.6538 20.4298 48.7353 16.3109 48.8169C14.1903 48.8577 12.1105 48.9392 9.9899 48.98C8.03242 49.0208 6.03415 49.0616 4.07667 49.1431C3.54652 49.1839 3.01637 49.1839 2.48622 49.2247C2.28231 49.2247 2.03762 49.0616 1.91528 48.98Z" fill="#FEC301"/>
</svg>
