<svg
  viewBox="0 0 232 62"
  preserveAspectRatio="none"
  xmlns="http://www.w3.org/2000/svg"
>
    <path
      d="M1.0531 39.5952C1.98224 39.0182 3.07534 40.1722 4.00447 39.2106C3.89516 37.9284 3.12999 36.9026 2.36482 36.4539C0.178622 35.2358 -0.258618 32.8638 0.123966 30.8123C1.21707 25.1707 -0.641203 19.3367 1.21707 13.7592C1.38103 13.3104 1.21707 12.7335 1.10776 12.2206C0.233276 7.92528 1.16241 6.38665 4.82429 6.45076C9.36066 6.51487 13.4598 4.07872 17.9415 3.62996C23.7349 3.05297 29.419 1.89901 35.2125 1.38614C46.7993 0.360388 58.4408 -0.152486 70.0277 0.0398416C81.3959 0.232169 92.7095 0.488606 104.078 0.16806C113.97 -0.152486 123.863 0.360388 133.755 0.809152C150.534 1.57846 167.314 3.62996 184.147 3.43763C191.744 3.30941 199.396 4.07872 206.993 3.69407C211.092 3.50174 215.137 3.2453 219.236 3.2453C220.985 3.2453 222.679 3.69407 224.373 4.07872C225.357 4.33516 226.45 4.52749 226.013 6.32255C225.958 6.64309 226.232 7.28418 226.396 7.34829C229.238 8.1176 228.691 11.6436 230.167 13.3746C229.675 14.7209 227.653 12.9258 228.035 14.9773C228.308 16.58 229.784 15.3619 230.877 15.9389C230.276 17.6699 230.057 19.5932 230.331 21.4523C230.659 23.632 228.363 24.0808 228.363 25.4271C228.363 26.5169 230.659 26.7734 229.893 29.0813C229.128 31.3892 231.424 29.9788 231.97 30.8764C230.221 32.9279 231.424 35.1076 231.642 37.2232C231.752 38.0566 232.298 39.0824 231.314 39.3388C227.598 40.2363 230.385 42.7366 230.932 43.3136C232.462 44.9163 232.025 46.519 231.588 48.25C231.314 49.3398 230.495 50.2374 231.533 51.3913C231.861 51.776 231.533 52.353 231.205 52.8017C228.363 55.9431 225.521 58.4433 221.313 59.1485C205.189 61.777 189.066 60.7513 172.888 60.3666C164.417 60.1743 155.945 60.2384 147.583 59.405C135.122 58.1869 122.715 57.6099 110.254 57.7381C101.728 57.8022 93.1467 58.1228 84.6206 58.0587C74.892 57.9946 65.1634 57.2253 55.4348 57.6099C44.9957 57.9946 34.5566 58.3792 24.2268 60.0461C22.0953 60.3666 19.8544 60.2384 17.7229 60.1102C15.646 59.982 13.7331 59.5332 11.6562 61.2C9.19669 63.1233 6.13601 61.3924 5.15222 57.9946C4.71498 56.456 4.16843 55.1097 3.34861 53.7634C2.1462 51.7119 1.27172 49.5963 2.47413 47.0319C3.2393 45.301 3.2393 43.6341 1.76362 42.2237C1.21707 41.6467 0.834481 40.6851 1.0531 39.5952Z"
   
    />
</svg>
