<svg
  width="95"
  viewBox="0 0 95 64"
  fill="none"
  xmlns="http://www.w3.org/2000/svg"
>
  <g clip-path="url(#clip0_86_2195)">
    <path
      d="M5.16042 63.7305C3.51663 62.5044 0.296421 59.9444 0.175158 57.856C1.13179 56.7916 2.39832 55.9966 3.53011 55.1478C12.0724 48.1549 24.32 38.7503 26.3949 27.2842C19.4156 27.8771 13.3928 32.9971 6.35958 32.8623C3.86695 32.3907 1.84589 30.3293 0.458105 28.1869C0.107789 27.6345 -0.0673686 26.9878 -1.77883e-07 26.3411C0.633263 20.1162 22.0564 -4.45979 27.4189 0.714104C27.6076 0.889262 28.7528 2.56 27.0821 3.11242C18.7284 6.81768 10.7924 20.1971 5.42989 27.8636C11.9646 26.3545 18.2029 21.504 25.1149 22.5819C29.4131 24.8455 32.2156 29.669 30.8952 34.8025C27.9444 46.2282 7.45095 64 5.76674 64C5.52421 64 5.3221 63.9192 5.16042 63.7305Z"
      fill="#FEC301"
    />
    <path
      d="M92.6181 33.8728C92.0118 33.3608 91.3516 32.4581 90.5162 32.4581C89.2093 32.9971 87.8888 33.5091 86.5684 34.0345C86.0295 34.2097 85.4771 34.3714 84.9246 34.5331C85.4905 28.3621 85.8408 22.1507 86.9322 16.0606C87.5789 13.7836 88.0101 11.4392 88.5895 9.14863C89.1958 7.58568 89.7617 6.00926 90.2602 4.41937C90.0312 3.36842 87.5251 -0.067368 86.4337 3.96278e-07C79.6564 12.288 74.6712 26.1659 68.608 38.8042C67.328 39.1545 66.048 39.5048 64.7815 39.8956C63.8383 40.2324 62.5853 40.6366 61.696 41.0947C61.6556 42.0379 63.9731 43.7895 64.7545 44.3284C64.9162 44.4362 65.0644 44.4766 65.2261 44.4766C65.4147 44.4766 65.6034 44.4227 65.792 44.3419C63.2185 48.7208 61.1571 55.5789 57.6 58.8935C56.8455 59.5941 55.7541 59.8232 54.8109 59.4055C54.7301 59.3651 54.6493 59.3246 54.5684 59.2842C54.5684 59.2842 57.1688 62.7065 58.9878 63.744C59.3785 63.9326 59.7693 64.0135 60.1465 64.0135C63.8383 64.0135 66.5196 55.6733 68.2307 53.0998C70.3057 49.408 72.2324 45.6354 74.0514 41.8223C76.2476 41.3507 78.4573 40.8792 80.6265 40.2459C80.2897 43.6143 80.0472 46.9827 79.8585 50.3781C79.8316 54.1642 78.1069 57.1015 81.7583 59.7288C82.4724 60.2947 82.9036 60.6316 83.1596 60.6316C83.483 60.6316 83.5099 60.0926 83.4829 58.8396C83.6851 52.5608 83.6851 46.2552 84.3722 40.0034C84.3992 39.8147 84.4126 39.6126 84.4396 39.424C87.7676 38.6695 91.0282 37.7398 94.0328 36.0017C94.4101 35.7861 92.7394 33.9941 92.6181 33.8728ZM76.3554 36.8371C77.5411 34.2097 78.6728 31.5554 79.7642 28.8876C80.7747 26.6105 81.8257 24.3469 82.8901 22.0834C82.3916 25.8291 82.0278 29.6152 81.4619 33.3474C81.3541 34.1019 81.2463 34.8564 81.152 35.6109C79.5621 36.0286 77.9587 36.4328 76.3554 36.8371Z"
      fill="#FEC301"
    />
    <path
      d="M47.7103 33.8324C49.9604 31.2185 52.2105 28.6046 54.5549 26.0985C54.3933 25.1419 53.3423 24.4143 52.6417 23.808C52.1431 23.3634 51.173 24.8455 50.7284 25.2901C49.0038 27.0551 47.4678 28.9819 45.9587 30.9221C44.6248 28.7259 43.4661 26.8261 42.5634 25.061C41.9975 25.3036 41.3507 26.2063 40.8657 26.8126C40.4749 27.2842 40.933 27.7962 41.0947 28.1735C41.8897 29.8846 42.8598 31.5554 43.9511 33.4821C43.008 34.6678 42.0379 35.8265 41.0139 36.9448C39.7878 38.1979 38.6964 39.5722 37.7128 41.0408C37.8476 41.8762 38.7907 42.5229 39.397 43.0619C39.8282 43.4526 40.8522 41.7684 41.2429 41.2834C42.6442 39.6126 44.0589 38.0497 45.5006 36.3924C45.6623 36.7293 45.824 37.0661 45.9857 37.4164C46.6324 38.9928 47.5082 40.5558 48.5861 42.1591C49.5293 42.2939 50.661 41.445 51.4964 40.7983C51.9949 40.4076 50.6476 38.7638 50.176 38.0766C49.2463 36.5541 48.4918 35.1663 47.7103 33.8324Z"
      fill="#0F0F0F"
      class="x"
    />
  </g>
  <defs>
    <clipPath id="clip0_86_2195">
      <rect width="94.0733" height="64" fill="white" />
    </clipPath>
  </defs>
</svg>
