<svg viewBox="0 0 384 92" fill="none" xmlns="http://www.w3.org/2000/svg">
<path d="M278.636 48.6817C277.765 47.9459 276.816 46.6485 275.615 46.6485C273.737 47.4231 271.839 48.1589 269.941 48.9141C269.167 49.1658 268.373 49.3982 267.579 49.6306C268.392 40.7617 268.896 31.8348 270.464 23.0821C271.394 19.8095 272.013 16.4401 272.846 13.1482C273.717 10.9019 274.531 8.63627 275.247 6.35128C274.879 4.82149 271.297 -0.116414 269.709 -0.019592C259.969 17.6407 252.804 37.586 244.09 55.7497C242.25 56.2532 240.411 56.7567 238.591 57.3182C237.235 57.8023 235.434 58.3833 234.156 59.0417C234.098 60.3972 237.429 62.9145 238.552 63.6891C238.784 63.844 238.997 63.9021 239.23 63.9021C239.501 63.9021 239.772 63.8246 240.043 63.7085C236.344 70.0019 233.382 79.8583 228.269 84.622C227.185 85.6289 225.616 85.9581 224.261 85.3578C224.145 85.2997 224.029 85.2416 223.912 85.1835C223.912 85.1835 227.65 90.1021 230.264 91.5931C230.825 91.8642 231.387 91.9804 231.929 91.9804C237.235 91.9804 241.089 79.9939 243.548 76.2953C246.53 70.9895 249.299 65.5674 251.913 60.0873C255.07 59.4096 258.245 58.7318 261.363 57.8217C260.879 62.6628 260.53 67.5039 260.259 72.3837C260.22 77.8251 257.742 82.0465 262.99 85.8225C264.016 86.6358 264.636 87.12 265.003 87.12C265.468 87.12 265.507 86.3454 265.468 84.5445C265.759 75.5207 265.759 66.4582 266.746 57.4731C266.785 57.202 266.804 56.9116 266.843 56.6405C271.626 55.5561 276.312 54.2199 280.63 51.7219C281.211 51.4315 278.81 48.856 278.636 48.6817ZM255.283 52.9419C256.987 49.1658 258.613 45.3511 260.182 41.5169C261.634 38.2444 263.145 34.9911 264.674 31.7379C263.958 37.1212 263.435 42.5626 262.622 47.9265C262.467 49.0109 262.312 50.0953 262.176 51.1797C259.872 51.78 257.587 52.361 255.283 52.9419Z" fill="#FEC301"/>
<path d="M7.70944 91.5929C5.34699 89.8307 0.718915 86.1515 0.544636 83.15C1.9195 81.6202 3.73975 80.4777 5.36636 79.2578C17.6434 69.2077 35.2455 55.6914 38.2276 39.2123C28.1969 40.0644 19.5411 47.4228 9.43287 47.2292C5.85047 46.5514 2.94581 43.5887 0.951287 40.5097C0.447814 39.7158 0.196078 38.7863 0.292899 37.8568C1.20302 28.9105 31.9923 -6.41007 39.6993 1.02584C39.9704 1.27758 41.6164 3.67876 39.2152 4.47269C27.2093 9.79789 15.8037 29.0267 8.09673 40.045C17.4884 37.8762 26.4541 30.905 36.388 32.4542C42.5653 35.7074 46.593 42.6398 44.6953 50.0176C40.4545 66.4386 11.0014 91.9802 8.58084 91.9802C8.23228 91.9802 7.94181 91.864 7.70944 91.5929Z" fill="#FEC301"/>
<path d="M194.73 48.6234C197.964 44.8667 201.198 41.1101 204.567 37.5083C204.335 36.1334 202.825 35.0878 201.818 34.2164C201.101 33.5773 199.707 35.7074 199.068 36.3464C196.589 38.8832 194.382 41.6523 192.213 44.4407C190.296 41.2843 188.631 38.554 187.333 36.0172C186.52 36.3658 185.59 37.6632 184.893 38.5346C184.332 39.2124 184.99 39.9482 185.222 40.4904C186.365 42.9497 187.759 45.3509 189.328 48.12C187.972 49.824 186.578 51.4894 185.106 53.0966C183.344 54.8975 181.776 56.8726 180.362 58.9834C180.556 60.1839 181.911 61.1134 182.782 61.888C183.402 62.4496 184.874 60.029 185.435 59.3319C187.449 56.9307 189.483 54.6845 191.555 52.3027C191.787 52.7868 192.019 53.2709 192.252 53.7744C193.181 56.04 194.44 58.2862 195.989 60.5906C197.344 60.7842 198.971 59.5643 200.172 58.6348C200.888 58.0732 198.952 55.7108 198.274 54.7232C196.938 52.5544 195.853 50.5405 194.73 48.6234Z" fill="#FEC301"/>
<path d="M88.4006 24.2051V29.0462V32.919C89.5819 30.5372 92.0218 29.0462 94.6747 29.0462H98.0828V67.9491C98.0828 69.7113 97.3857 71.3766 96.1464 72.6159H98.0828H102.924H104.86C103.621 71.3766 102.924 69.6919 102.924 67.9491V29.0462H112.606V32.4543C112.606 35.1072 111.115 37.5277 108.733 38.7283H112.606H117.447V29.0462V24.2051H88.4006Z" fill="white"/>
<path d="M320.773 24.2051V29.0462V32.919C321.954 30.5372 324.394 29.0462 327.047 29.0462H330.455V67.9491C330.455 69.7113 329.758 71.3766 328.519 72.6159H330.455H335.296H337.233C335.993 71.3766 335.296 69.6919 335.296 67.9491V29.0462H344.978V32.4543C344.978 35.1072 343.487 37.5277 341.105 38.7283H344.978H349.819V29.0462V24.2051H320.773Z" fill="white"/>
<path d="M357.081 29.0462C355.551 31.0794 354.66 33.5774 354.66 36.3078C354.66 39.0382 355.551 41.5362 357.081 43.5694C357.972 44.7507 359.075 45.777 360.354 46.5709C362.212 47.7328 364.42 48.4105 366.763 48.4105H369.029C374.335 48.4105 378.788 52.6126 378.866 57.9184C378.963 63.3404 374.586 67.7749 369.184 67.7749H359.501V64.3667C359.501 61.7138 360.993 59.2933 363.374 58.0927H359.501H354.66V72.6159H369.184C373.483 72.6159 377.355 70.7376 380.008 67.7749C382.313 65.1994 383.707 61.8106 383.707 58.0927C383.707 54.3747 382.313 50.986 380.008 48.4105C378.692 46.9388 377.084 45.7382 375.283 44.9056C373.424 44.0535 371.372 43.5694 369.184 43.5694H366.899C362.832 43.5694 359.424 40.2388 359.501 36.1722C359.579 32.2219 362.793 29.0462 366.763 29.0462H377.433C380.086 29.0462 382.506 30.5372 383.707 32.919V29.0462V24.2051H366.763C362.813 24.2051 359.288 26.1028 357.081 29.0462Z" fill="white"/>
<path d="M312.233 48.4105C314.538 45.8351 315.932 42.4463 315.932 38.7283C315.932 35.0104 314.538 31.6216 312.233 29.0462C309.58 26.0834 305.707 24.2051 301.409 24.2051H286.885V72.6159H291.726H295.599C293.217 71.4347 291.726 68.9948 291.726 66.3419V53.2516L311.091 72.6159H315.932V58.0927H311.091H307.218C309.6 59.2739 311.091 61.7138 311.091 64.3667V65.8384L298.504 53.2516H301.409C305.707 53.2516 309.58 51.3733 312.233 48.4105ZM291.726 48.4105V42.6012C292.559 40.9165 293.915 39.561 295.599 38.7283C293.915 37.8957 292.559 36.5402 291.726 34.8555V29.0462H301.254C306.559 29.0462 311.013 33.2482 311.091 38.5541C311.188 43.9761 306.811 48.4105 301.409 48.4105H291.726Z" fill="white"/>
<path d="M146.494 27.9037C143.918 25.5993 140.529 24.2051 136.811 24.2051C133.094 24.2051 129.705 25.5993 127.129 27.9037C124.167 30.5566 122.288 34.4295 122.288 38.7283V58.0927C122.288 62.3916 124.167 66.2644 127.129 68.9174C129.705 71.2217 133.094 72.6159 136.811 72.6159C140.529 72.6159 143.918 71.2217 146.494 68.9174C149.456 66.2644 151.335 62.3916 151.335 58.0927V38.7283C151.335 34.4295 149.456 30.5566 146.494 27.9037ZM146.494 58.0927C146.494 63.4372 142.156 67.7749 136.811 67.7749C131.467 67.7749 127.129 63.4372 127.129 58.0927V38.7283C127.129 33.3838 131.467 29.0462 136.811 29.0462C142.156 29.0462 146.494 33.3838 146.494 38.7283V58.0927ZM136.811 44.5376C137.644 46.2223 139 47.5778 140.684 48.4105C139 49.2432 137.644 50.5987 136.811 52.2834C135.979 50.5987 134.623 49.2432 132.939 48.4105C134.623 47.5778 135.979 46.2223 136.811 44.5376Z" fill="white"/>
<path d="M54.5131 72.6159H83.5596V67.7749V63.902C82.3783 66.2838 79.9384 67.7749 77.2855 67.7749H59.3541V58.0927H74.0517C75.8138 58.0927 77.4792 58.7898 78.7185 60.0291V58.0927V53.2516V51.3152C77.4792 52.5545 75.7945 53.2516 74.0517 53.2516H59.3541V29.0462H77.2855C79.9384 29.0462 82.359 30.5372 83.5596 32.919V29.0462V24.2051H54.5131V72.6159Z" fill="white"/>
</svg>
